  <svg version="1.0" xmlns="http://www.w3.org/2000/svg"  width="600.000000pt" height="600.000000pt" viewBox="0 0 600.000000 600.000000"  preserveAspectRatio="xMidYMid meet"> <g transform="translate(0.000000,600.000000) scale(0.100000,-0.100000)" fill="#000000" stroke="none"> <path d="M0 3000 l0 -3000 3000 0 3000 0 0 3000 0 3000 -3000 0 -3000 0 0 -3000z m3338 2746 c643 -98 1195 -386 1637 -854 380 -403 628 -916 717 -1487 30 -190 32 -609 5 -785 -78 -500 -256 -922 -556 -1315 -91 -119 -342 -375 -461 -469 -392 -311 -840 -505 -1347 -583 -159 -25 -605 -25 -763 0 -640 100 -1171 370 -1605 818 -408 420 -663 928 -756 1507 -29 183 -37 539 -15 726 43 375 161 739 338 1049 141 245 289 437 484 627 471 459 1024 713 1699 784 93 9 524 -3 623 -18z m-2120 -501 c-3 -3 -9 2 -12 12 -6 14 -5 15 5 6 7 -7 10 -15 7 -18z m3642 -155 c-12 -22 -21 -26 -17 -7 2 10 17 26 25 27 1 0 -2 -9 -8 -20z m90 -65 c0 -2 -6 -5 -13 -8 -8 -3 -14 1 -14 8 0 7 6 11 14 8 7 -3 13 -6 13 -8z m-4687 -1190 c-3 -9 -8 -14 -10 -11 -3 3 -2 9 2 15 9 16 15 13 8 -4z m715 -2860 c-3 -3 -9 2 -12 12 -6 14 -5 15 5 6 7 -7 10 -15 7 -18z m3879 -70 c0 -8 -4 -12 -9 -9 -5 3 -6 10 -3 15 9 13 12 11 12 -6z"/> <path d="M2647 5733 c-9 -2 -15 -8 -12 -13 3 -5 -8 -4 -24 1 -21 7 -41 8 -63 1 -18 -6 -55 -13 -83 -17 -27 -4 -54 -10 -60 -13 -5 -4 -19 -7 -30 -8 -11 -1 -56 -10 -100 -22 -44 -11 -92 -23 -106 -26 -14 -2 -46 -13 -70 -24 -48 -21 -99 -36 -112 -33 -5 1 -6 -3 -2 -9 4 -6 -4 -10 -19 -10 -14 0 -27 -4 -31 -10 -3 -5 -12 -7 -19 -4 -7 3 -19 -2 -26 -11 -7 -8 -16 -15 -21 -15 -4 0 -20 -5 -36 -12 -15 -6 -32 -10 -36 -9 -5 1 -5 -3 -2 -9 4 -7 1 -10 -6 -8 -18 3 -109 -41 -109 -53 0 -5 -3 -8 -7 -7 -14 4 -74 -32 -69 -41 3 -4 -1 -8 -9 -8 -8 0 -11 5 -8 11 4 6 -2 4 -13 -5 -10 -9 -40 -28 -66 -43 -27 -15 -48 -31 -48 -37 0 -6 -5 -7 -10 -4 -6 3 -14 -4 -19 -17 -6 -13 -10 -18 -10 -11 -1 7 -8 10 -16 7 -8 -4 -13 -10 -10 -14 7 -11 -15 -27 -47 -35 -16 -4 -25 -11 -22 -16 3 -5 -1 -6 -9 -3 -8 3 -17 -2 -20 -11 -4 -8 -18 -20 -32 -25 -16 -6 -23 -14 -19 -25 4 -10 2 -13 -8 -10 -8 3 -23 -3 -33 -15 -10 -11 -14 -20 -10 -20 4 0 0 -9 -9 -19 -11 -12 -25 -17 -34 -13 -15 5 -16 4 -2 -13 14 -17 14 -18 -7 -7 -17 9 -22 9 -27 -4 -3 -9 -4 -19 -1 -23 2 -4 -2 -8 -10 -8 -8 0 -11 5 -8 11 3 6 -5 0 -18 -14 -13 -13 -23 -28 -22 -32 2 -5 -1 -7 -5 -5 -9 2 -132 -116 -132 -127 0 -4 4 -5 9 -1 18 10 21 -13 4 -26 -9 -8 -14 -9 -10 -3 4 7 0 14 -8 18 -17 6 -29 -9 -20 -24 4 -6 3 -10 -2 -9 -27 5 -35 -1 -23 -17 11 -12 11 -15 -1 -12 -9 2 -13 -5 -12 -19 3 -24 -11 -31 -23 -11 -5 7 -3 8 6 3 9 -5 11 -4 6 3 -9 15 -11 15 -27 -5 -12 -15 -12 -16 1 -8 8 4 0 -6 -18 -22 -21 -20 -30 -36 -26 -47 3 -9 11 -13 17 -9 6 4 7 1 2 -6 -5 -9 -10 -10 -18 -2 -17 17 -25 13 -43 -21 -10 -18 -24 -39 -33 -46 -13 -11 -13 -12 -1 -7 8 4 4 -3 -9 -14 -13 -12 -18 -21 -12 -21 6 0 11 -5 11 -11 0 -5 -4 -8 -9 -4 -12 7 -46 -39 -91 -120 -19 -33 -36 -62 -39 -65 -3 -3 -7 -14 -9 -25 -2 -11 -11 -26 -20 -32 -9 -7 -12 -13 -6 -13 5 0 4 -4 -2 -8 -5 -4 -27 -45 -47 -92 -20 -47 -37 -80 -37 -75 -2 22 -43 -102 -44 -132 -1 -17 -4 -29 -9 -26 -4 2 -7 -2 -7 -11 0 -8 -5 -16 -11 -18 -6 -2 -11 -16 -11 -31 0 -15 -4 -27 -9 -27 -5 0 -9 -10 -9 -23 0 -13 -7 -32 -15 -43 -17 -23 -19 -38 -4 -28 8 4 8 0 0 -15 -7 -12 -9 -26 -6 -31 3 -6 2 -10 -3 -10 -9 0 -28 -75 -58 -225 -8 -38 -15 -102 -17 -141 -1 -40 -6 -67 -10 -60 -4 6 -5 -10 -1 -37 3 -26 2 -53 -3 -60 -10 -13 -10 -355 0 -397 3 -14 9 -63 12 -110 6 -92 7 -102 31 -200 8 -36 18 -83 21 -105 3 -22 9 -44 14 -50 5 -5 9 -19 9 -31 0 -13 5 -26 11 -29 6 -4 8 -13 5 -20 -5 -15 15 -77 33 -98 7 -9 10 -21 6 -27 -6 -10 18 -54 26 -46 2 2 4 -10 5 -27 1 -37 33 -126 52 -145 7 -8 10 -18 7 -23 -4 -5 0 -9 7 -9 8 0 14 -10 14 -22 1 -27 41 -98 56 -98 5 0 6 -10 3 -21 -5 -15 -4 -19 4 -15 7 5 11 -1 11 -14 0 -12 9 -33 20 -47 11 -14 20 -31 20 -38 0 -17 25 -26 39 -14 6 5 4 1 -4 -8 -12 -14 -12 -18 3 -30 9 -8 11 -11 3 -7 -8 4 -2 -9 13 -29 16 -20 24 -37 20 -37 -5 0 9 -17 31 -36 22 -20 33 -33 25 -29 -13 6 -13 5 0 -7 26 -23 56 -62 41 -53 -10 5 -12 4 -7 -3 4 -7 14 -12 22 -12 8 0 13 -4 10 -9 -3 -4 6 -18 19 -31 13 -13 22 -26 20 -30 -3 -4 2 -13 10 -20 8 -7 15 -9 15 -4 0 5 9 -6 20 -24 12 -20 25 -30 32 -26 7 5 8 3 4 -5 -8 -13 120 -148 136 -144 4 2 7 -3 5 -10 -1 -6 4 -11 11 -9 8 1 11 -2 7 -7 -3 -6 5 -15 17 -22 13 -7 29 -21 37 -31 8 -12 21 -18 32 -15 11 3 17 1 14 -3 -8 -12 5 -38 21 -44 8 -3 13 -2 10 2 -2 4 0 14 5 22 7 11 8 8 5 -12 -5 -30 22 -62 46 -53 8 3 20 0 26 -8 9 -11 8 -14 -3 -14 -8 0 -12 4 -9 9 3 4 0 8 -5 8 -22 0 -10 -17 34 -48 25 -17 57 -35 71 -38 17 -4 22 -9 14 -14 -9 -6 -6 -11 10 -20 18 -10 21 -9 15 1 -5 8 -4 10 3 5 7 -4 12 -15 13 -24 0 -14 2 -13 9 3 8 18 9 18 9 2 1 -11 6 -15 13 -11 7 4 8 3 4 -4 -4 -7 13 -22 45 -39 28 -16 63 -37 78 -49 14 -12 36 -20 48 -19 12 1 20 -2 17 -7 -3 -4 4 -8 15 -8 11 0 23 -5 27 -12 4 -7 3 -8 -4 -4 -7 4 -12 5 -12 2 0 -14 70 -36 101 -31 23 4 29 2 19 -4 -8 -5 -19 -7 -25 -3 -5 3 -4 -2 4 -11 15 -19 26 -23 15 -6 -4 7 -1 10 7 7 8 -3 13 -9 12 -14 -1 -5 9 -14 23 -21 13 -6 22 -8 19 -3 -2 4 11 0 30 -8 19 -9 35 -20 35 -25 0 -4 4 -5 10 -2 5 3 24 -2 42 -12 18 -9 41 -18 51 -20 10 -2 40 -13 67 -24 27 -12 54 -18 59 -14 6 3 11 2 11 -4 0 -10 17 -17 65 -25 17 -3 57 -13 90 -22 33 -10 70 -17 82 -17 13 1 20 -3 17 -8 -3 -5 9 -6 27 -2 20 4 30 2 26 -4 -3 -5 8 -9 28 -8 19 1 32 -2 29 -6 -3 -5 7 -10 23 -10 15 -1 53 -4 83 -7 83 -8 585 -8 665 0 39 5 95 13 125 18 30 6 66 12 80 15 14 2 45 9 70 15 25 6 56 13 70 15 37 5 61 16 55 25 -3 5 -1 12 5 15 6 4 9 3 8 -2 -3 -7 6 -15 15 -12 1 0 15 2 32 4 16 2 31 9 33 15 2 5 13 10 25 11 33 1 172 54 170 65 -1 5 13 10 30 11 39 3 108 33 102 44 -3 4 6 6 20 4 14 -1 25 1 25 4 0 3 12 15 27 25 14 11 23 14 18 7 -11 -19 26 2 49 28 11 12 24 21 29 21 6 0 2 -7 -9 -16 -18 -14 -18 -15 4 -4 13 6 26 18 29 26 3 9 13 14 23 11 10 -2 25 4 34 15 9 11 30 24 46 30 17 5 27 14 24 19 -3 5 2 9 11 9 10 0 34 13 55 30 20 16 41 26 46 22 4 -4 3 0 -3 8 -9 12 -7 15 13 16 25 2 121 80 116 96 -1 5 2 6 9 3 13 -8 71 44 63 57 -3 5 -2 8 3 7 21 -4 24 2 12 19 -12 15 -12 16 2 5 12 -10 18 -10 29 0 10 10 11 9 6 -3 -4 -8 2 -4 13 10 11 14 18 31 16 39 -4 10 -2 11 7 4 9 -8 19 -5 33 10 11 11 14 17 8 13 -7 -4 -13 -5 -13 -1 0 3 12 10 26 15 14 6 22 14 19 20 -4 6 1 7 12 3 16 -6 17 -5 3 12 -9 11 -10 16 -3 11 7 -4 21 -2 30 4 16 10 16 11 -2 6 -16 -4 -15 -2 5 12 34 23 95 82 85 82 -4 0 2 9 14 19 13 11 20 25 16 30 -4 7 1 8 12 4 13 -4 10 2 -9 24 -16 16 -28 33 -28 38 0 5 6 0 14 -10 23 -32 42 -25 92 33 27 31 43 53 36 49 -8 -6 -10 -3 -6 7 3 8 13 12 22 9 15 -4 15 -3 2 7 -11 9 -12 13 -2 17 6 2 10 9 6 14 -3 5 -2 9 3 8 19 -3 34 2 29 10 -3 4 5 18 17 30 13 11 29 37 37 56 7 19 18 31 23 28 6 -4 8 0 4 10 -3 9 -3 16 1 14 4 -1 9 3 10 8 2 6 8 15 14 22 5 7 6 18 2 24 -5 8 -3 9 6 4 10 -6 12 -4 6 11 -4 10 -4 15 0 12 4 -4 16 4 26 18 11 14 18 28 14 31 -3 4 -6 0 -6 -7 0 -7 -3 -11 -6 -7 -9 9 32 58 41 49 5 -4 5 -1 1 5 -4 7 11 48 34 91 22 43 40 88 40 99 0 12 4 23 9 25 4 2 17 24 29 50 15 35 17 49 8 58 -8 10 -8 11 1 6 13 -7 21 3 33 45 6 21 5 27 -2 23 -8 -5 -9 -1 -5 10 4 10 7 23 8 29 0 7 4 3 9 -8 8 -18 9 -18 9 5 1 14 8 48 17 75 16 51 26 103 28 142 1 11 4 19 9 16 4 -2 7 19 7 47 0 28 4 49 9 46 5 -3 8 0 8 7 -1 6 4 49 11 95 7 46 15 120 18 165 3 45 6 103 8 129 2 26 0 45 -5 42 -5 -3 -7 1 -5 8 9 27 16 159 9 155 -5 -3 -9 39 -10 92 -2 53 -8 130 -14 171 -6 41 -12 83 -12 92 -1 9 -5 14 -9 12 -4 -3 -8 3 -9 13 -4 84 -19 164 -33 182 -8 11 -8 13 1 8 6 -4 3 16 -9 45 -11 29 -21 62 -22 73 0 11 -4 25 -8 31 -4 6 -9 23 -12 38 -3 15 -10 34 -17 42 -6 8 -8 14 -3 14 4 0 3 5 -4 12 -7 7 -12 20 -12 30 0 9 -9 22 -20 28 -17 9 -18 14 -9 32 6 11 7 18 1 14 -5 -3 -13 10 -16 29 -5 22 -11 33 -18 29 -6 -4 -8 -3 -5 3 9 14 -17 76 -27 66 -4 -5 -7 1 -6 12 4 34 0 46 -10 40 -9 -6 -15 8 -11 29 1 5 -4 4 -12 -2 -11 -9 -13 -6 -9 20 3 21 1 29 -7 24 -7 -5 -9 -1 -5 8 4 9 1 16 -6 16 -7 0 -10 7 -6 16 4 10 2 13 -6 8 -8 -5 -9 -2 -5 9 3 9 1 19 -5 23 -7 4 -8 3 -4 -4 4 -7 2 -12 -3 -12 -6 0 -11 6 -11 14 0 22 -72 144 -94 158 -6 4 -7 8 -3 8 5 0 -8 16 -28 35 -20 20 -33 40 -29 47 5 7 2 9 -9 5 -10 -4 -14 -2 -11 6 4 12 -20 49 -58 89 -10 10 -15 18 -10 18 4 0 -9 15 -28 33 -19 17 -45 48 -57 67 -13 19 -23 31 -23 27 0 -5 -18 13 -40 38 -22 25 -40 43 -40 40 0 -4 -9 3 -21 16 -11 13 -17 18 -13 10 5 -9 3 -12 -4 -7 -7 4 -12 13 -12 21 0 21 -61 67 -82 62 -10 -3 -16 -1 -12 4 3 5 0 9 -7 9 -6 0 -9 8 -6 20 3 12 0 20 -8 20 -7 0 -20 10 -29 23 -9 12 -14 15 -10 7 7 -12 5 -13 -7 -3 -11 9 -19 9 -26 2 -6 -6 -10 -5 -10 5 0 8 4 13 9 10 4 -3 8 0 8 5 0 6 -4 11 -9 11 -5 0 -28 16 -52 35 -23 20 -48 34 -56 31 -8 -3 -12 -2 -9 3 3 5 -10 21 -29 35 -19 15 -35 24 -35 20 0 -4 -6 0 -12 9 -7 9 -39 30 -72 47 -32 16 -54 30 -50 30 11 0 -24 21 -95 55 -30 14 -61 23 -69 20 -13 -5 -13 -3 -1 12 7 10 9 15 5 11 -5 -4 -16 -2 -24 5 -13 9 -14 9 -8 0 4 -7 3 -13 -3 -13 -5 0 -14 8 -20 17 -8 15 -11 15 -28 3 -16 -14 -17 -14 -4 2 12 16 10 19 -14 28 -14 5 -33 10 -41 10 -8 0 -14 4 -14 10 0 5 -7 6 -17 3 -12 -5 -14 -3 -8 7 5 9 4 11 -3 6 -6 -4 -24 1 -39 11 -15 10 -24 12 -19 5 4 -7 -9 -3 -29 8 -19 11 -42 20 -50 20 -8 0 -15 5 -15 11 0 5 -4 8 -9 5 -5 -3 -42 5 -83 19 -97 34 -293 79 -345 79 -22 1 -39 5 -36 9 3 4 -17 8 -44 7 -26 0 -68 4 -93 9 -44 10 -547 13 -583 4z m50 -9 c-3 -3 -12 -4 -19 -1 -8 3 -5 6 6 6 11 1 17 -2 13 -5z m568 -113 c44 -6 105 -15 135 -20 30 -5 59 -6 64 -3 5 3 6 0 2 -6 -7 -12 29 -18 79 -14 16 2 17 0 5 -7 -10 -7 -7 -10 15 -9 17 0 66 -12 110 -27 44 -15 85 -28 92 -29 7 -1 16 -5 19 -9 4 -4 13 -7 20 -7 7 0 25 -5 41 -12 15 -6 34 -10 41 -9 6 1 12 -4 12 -10 0 -7 3 -9 6 -6 4 4 19 0 33 -8 55 -30 124 -55 135 -48 6 3 8 3 4 -2 -10 -10 21 -34 45 -35 9 0 17 -4 17 -9 0 -5 11 -8 25 -7 13 2 23 -2 22 -8 -1 -6 9 -10 23 -8 16 1 21 -1 12 -6 -9 -6 7 -18 50 -40 35 -17 59 -32 55 -32 -5 0 -2 -7 7 -15 17 -17 30 -20 21 -5 -3 6 -1 10 4 10 6 0 11 -8 11 -17 0 -15 2 -16 10 -3 8 13 10 13 10 -2 0 -19 136 -112 151 -103 5 3 6 -1 3 -9 -3 -9 3 -19 18 -26 13 -7 30 -22 40 -33 14 -18 18 -19 32 -8 9 8 19 11 23 7 3 -3 1 -6 -5 -6 -20 0 -13 -17 8 -23 11 -3 23 -13 27 -24 9 -25 41 -55 52 -48 10 5 61 -50 61 -65 0 -5 8 -7 18 -3 14 5 14 3 -3 -11 -11 -10 -15 -15 -8 -12 6 4 14 0 16 -6 4 -10 7 -10 15 0 7 11 11 10 17 -5 9 -21 12 -29 14 -43 0 -5 8 -10 17 -10 9 0 14 -6 11 -13 -2 -6 3 -19 11 -27 14 -13 15 -12 9 3 -3 9 -4 17 -1 17 3 0 10 -13 15 -30 6 -16 15 -30 20 -30 5 0 9 -5 9 -10 0 -11 4 -17 45 -65 24 -27 25 -28 15 -5 -10 23 -10 24 4 7 8 -11 12 -25 9 -33 -3 -8 -1 -14 5 -14 5 0 21 -18 36 -40 15 -23 31 -38 37 -35 5 4 8 3 7 -2 -4 -13 23 -73 33 -73 5 0 9 5 9 10 0 6 -4 10 -9 10 -5 0 -12 8 -15 17 -6 15 -4 14 14 -2 11 -10 18 -25 16 -32 -7 -17 4 -44 14 -38 5 3 11 1 15 -5 3 -5 0 -10 -7 -10 -8 0 -9 -3 -3 -8 6 -4 21 -28 34 -55 25 -49 62 -90 48 -54 -4 11 -3 16 3 12 5 -3 8 -16 6 -28 -2 -12 4 -35 12 -52 9 -16 17 -32 17 -35 1 -3 16 -36 34 -75 18 -38 39 -88 47 -110 13 -38 28 -72 44 -105 4 -8 13 -38 20 -67 8 -29 17 -50 21 -47 5 3 8 -8 7 -23 0 -15 6 -53 15 -83 27 -97 47 -197 48 -241 0 -33 2 -39 8 -24 6 13 9 -1 9 -43 1 -35 4 -67 7 -72 3 -5 8 -64 11 -132 3 -68 6 -137 8 -155 1 -18 0 -30 -4 -28 -3 2 -6 -48 -8 -112 -1 -63 -4 -119 -7 -124 -4 -5 -6 -36 -6 -69 0 -34 -5 -58 -10 -55 -5 4 -9 -5 -9 -19 0 -13 -7 -56 -15 -95 -8 -39 -16 -84 -17 -101 -1 -16 -5 -30 -9 -30 -10 0 -32 -87 -25 -98 3 -6 3 -12 -2 -14 -10 -4 -52 -115 -58 -152 -2 -16 -9 -35 -15 -42 -6 -7 -7 -19 -3 -25 4 -8 3 -9 -4 -5 -7 4 -12 1 -12 -6 0 -7 -7 -26 -16 -43 -9 -16 -18 -41 -21 -55 -2 -14 -14 -35 -25 -48 -12 -12 -18 -22 -15 -22 4 0 -4 -18 -19 -41 -14 -23 -22 -39 -17 -36 5 3 9 -7 8 -23 0 -21 -4 -27 -17 -25 -9 2 -23 -4 -30 -13 -11 -13 -11 -14 2 -7 8 5 2 -6 -13 -24 -15 -19 -26 -40 -23 -47 3 -8 -1 -14 -10 -14 -8 0 -13 -4 -9 -9 3 -5 1 -13 -5 -16 -17 -11 -60 -84 -58 -97 2 -7 -3 -12 -10 -10 -8 1 -16 -7 -19 -18 -3 -11 -9 -18 -13 -15 -4 2 -13 -8 -21 -23 -7 -15 -19 -35 -27 -44 -8 -10 -11 -22 -6 -30 6 -11 5 -11 -8 0 -12 10 -18 10 -27 -2 -7 -8 -13 -23 -14 -35 0 -11 -4 -18 -8 -15 -10 6 -40 -37 -33 -47 2 -4 0 -11 -6 -14 -6 -4 -10 -3 -9 2 4 25 -4 22 -26 -12 -22 -31 -24 -40 -13 -54 12 -14 11 -14 -4 -3 -16 13 -46 6 -47 -11 -1 -12 -149 -147 -161 -147 -6 0 -8 -4 -5 -10 3 -5 2 -10 -3 -10 -9 0 -69 -45 -117 -89 -11 -10 -31 -24 -45 -31 -33 -17 -70 -51 -65 -60 2 -4 -2 -7 -10 -7 -8 0 -12 4 -9 9 3 4 -2 5 -10 2 -9 -3 -14 -11 -13 -17 1 -6 -9 -13 -22 -15 -19 -3 -21 -6 -10 -13 12 -7 11 -9 -2 -9 -9 0 -24 -10 -33 -22 l-17 -23 11 23 c10 21 10 22 -9 10 -11 -6 -17 -16 -14 -22 3 -5 1 -6 -5 -2 -7 4 -27 -4 -45 -18 -19 -15 -39 -26 -46 -26 -7 0 -10 -4 -7 -9 4 -5 -3 -7 -14 -4 -11 3 -20 1 -20 -4 0 -5 -23 -17 -50 -28 -40 -15 -47 -21 -33 -27 10 -4 2 -5 -17 -2 -30 6 -33 5 -22 -9 11 -13 10 -15 -9 -10 -17 5 -20 3 -14 -8 6 -11 5 -11 -5 -2 -9 8 -23 6 -59 -12 -25 -13 -61 -26 -78 -30 -18 -4 -33 -10 -33 -15 0 -4 -8 -7 -17 -6 -10 2 -24 -3 -31 -11 -8 -7 -17 -11 -21 -8 -5 2 -48 -9 -97 -25 -49 -15 -113 -31 -143 -35 -30 -4 -65 -11 -77 -16 -37 -13 -247 -38 -389 -45 -71 -3 -133 -8 -136 -10 -6 -4 -95 6 -306 32 -67 9 -127 12 -134 8 -7 -4 -9 -3 -5 4 6 10 -4 12 -96 15 -25 1 -33 4 -25 10 8 6 4 7 -10 4 -12 -3 -23 -1 -25 5 -2 5 -15 10 -28 12 -35 4 -102 26 -119 40 -12 9 -13 8 -7 -3 6 -10 3 -9 -15 2 -13 8 -56 25 -96 36 -40 12 -75 26 -78 31 -3 5 -19 7 -35 5 -17 -2 -28 0 -25 5 3 5 13 7 23 4 14 -5 14 -4 2 4 -8 6 -18 8 -22 5 -5 -2 -21 3 -36 13 -34 23 -91 46 -118 48 -15 1 -20 6 -16 16 5 13 3 13 -11 1 -15 -12 -17 -12 -11 4 5 13 4 16 -4 11 -7 -4 -12 -3 -12 1 0 5 -19 19 -42 31 -24 12 -56 31 -73 41 -16 10 -33 16 -37 14 -5 -2 -8 3 -8 11 0 9 -6 13 -14 10 -7 -3 -16 2 -20 11 -3 9 -11 13 -16 10 -6 -4 -10 -3 -9 2 4 21 -2 25 -14 8 -16 -21 -37 -13 -31 13 3 12 -11 27 -48 52 -62 41 -73 47 -64 31 5 -7 1 -9 -9 -5 -13 5 -13 9 -3 18 7 6 12 10 10 9 -2 -1 -16 9 -30 22 -14 13 -30 21 -35 18 -6 -4 -7 -1 -3 6 5 8 0 14 -13 18 -11 3 -18 9 -15 14 3 5 -2 9 -11 9 -10 0 -13 -5 -9 -12 4 -7 3 -8 -5 -4 -6 4 -9 12 -5 17 9 14 -16 40 -54 56 -22 9 -32 19 -28 28 3 9 -3 15 -17 17 -12 2 -21 8 -20 13 2 16 -18 35 -31 28 -6 -3 -8 -3 -4 2 11 12 -31 45 -50 38 -14 -4 -15 -3 -2 5 8 6 18 8 24 5 5 -4 6 -1 2 6 -5 7 -14 10 -20 8 -20 -8 -41 10 -41 35 0 16 -6 23 -18 22 -14 -2 -15 1 -6 12 9 11 8 14 -5 14 -15 0 -21 12 -17 33 1 4 -7 7 -16 5 -10 -2 -18 3 -18 12 0 25 -25 60 -41 60 -8 0 -13 4 -10 8 3 5 -5 20 -17 33 -12 13 -21 25 -19 27 2 1 -6 15 -16 30 -17 22 -22 24 -35 14 -12 -10 -17 -10 -23 -1 -4 7 -3 9 4 5 6 -3 16 3 22 15 8 15 9 19 1 15 -6 -4 -11 0 -11 9 0 10 -5 13 -12 9 -7 -4 -8 -3 -4 5 4 6 0 14 -8 17 -9 3 -16 15 -16 25 0 10 -4 19 -10 19 -5 0 -10 10 -10 21 0 19 -2 20 -17 8 -11 -9 -14 -10 -10 -2 12 19 -34 118 -45 101 -8 -10 -9 -9 -5 4 6 18 -13 68 -26 68 -5 0 -5 -6 -1 -12 4 -7 4 -10 -1 -6 -4 4 -9 23 -10 43 -1 19 -10 43 -21 52 -10 10 -20 27 -21 38 -2 35 -12 67 -26 89 -8 11 -20 45 -27 75 -9 38 -15 49 -22 40 -6 -9 -7 -3 -3 18 4 18 2 34 -4 38 -6 3 -11 20 -11 37 0 23 -4 29 -15 24 -13 -5 -14 -2 -4 15 6 12 7 19 1 15 -5 -3 -10 4 -10 17 0 12 -5 40 -10 62 -6 22 -16 68 -24 103 -7 34 -17 62 -22 62 -4 0 -3 7 4 15 10 12 10 18 0 30 -7 8 -10 22 -6 30 3 9 2 14 -2 11 -8 -5 -9 8 -15 341 -2 139 0 250 4 247 5 -3 4 7 -1 21 -7 17 -7 24 0 20 13 -8 13 36 0 71 -9 22 -8 25 2 16 10 -8 13 -5 14 11 1 12 5 33 9 46 6 18 5 22 -4 16 -10 -6 -11 -3 -2 13 6 11 11 32 11 46 0 14 4 27 9 30 8 5 29 97 37 156 1 13 8 26 13 28 6 2 11 13 11 25 0 18 -2 19 -10 7 -7 -10 -10 -11 -10 -2 0 7 7 15 15 18 8 4 13 10 10 14 -3 4 -2 22 1 40 4 17 10 27 14 21 3 -6 12 13 20 41 7 29 19 63 27 74 15 23 25 56 27 90 0 13 6 20 14 17 8 -4 10 0 6 11 -3 9 -1 16 4 16 6 0 18 14 26 32 12 24 13 34 5 42 -9 8 -10 8 -5 -1 3 -6 2 -14 -3 -17 -5 -4 -8 2 -6 11 1 10 8 17 14 15 16 -3 26 28 12 37 -8 5 -5 13 11 27 19 16 21 16 9 1 -10 -12 -11 -21 -4 -28 7 -7 13 -2 17 17 4 15 16 41 28 56 19 27 25 46 27 76 1 7 5 10 11 7 5 -3 10 -1 10 5 0 6 7 18 15 27 8 8 13 19 9 24 -3 5 0 8 8 7 7 -2 12 2 11 9 -1 6 13 28 32 49 19 20 34 40 33 43 -3 14 15 40 23 35 5 -3 9 5 9 18 0 19 2 20 11 8 8 -12 9 -11 4 6 -4 16 0 23 16 27 11 3 18 10 14 16 -3 6 2 11 12 11 17 1 17 1 1 11 -10 5 -15 16 -11 25 5 12 7 13 14 3 4 -8 11 -10 15 -6 4 4 2 13 -4 19 -7 7 -12 16 -12 21 0 5 9 -1 20 -14 10 -13 19 -21 20 -16 0 17 4 23 22 35 10 7 16 18 12 23 -3 5 0 8 8 7 7 -2 12 5 12 14 -1 11 4 14 14 11 10 -4 13 -2 8 5 -3 6 0 14 7 19 7 4 16 16 20 25 4 12 12 15 23 11 13 -5 16 -2 11 10 -6 16 15 42 26 30 4 -3 9 2 13 11 3 9 13 16 22 16 8 0 13 3 10 6 -8 7 25 42 34 37 4 -2 13 5 20 17 7 11 19 20 26 20 7 0 10 5 7 10 -3 6 -2 10 4 10 16 0 81 60 78 73 -1 6 5 12 13 13 37 3 41 5 35 14 -3 6 0 10 8 10 8 0 34 17 58 38 24 22 50 37 58 34 8 -3 11 0 7 7 -4 6 -1 11 8 11 15 0 21 12 17 33 -1 5 3 6 9 2 6 -3 8 -12 4 -18 -3 -7 2 -3 10 7 9 11 16 16 16 10 0 -5 10 2 21 16 11 14 18 19 14 13 -9 -18 10 -16 25 2 7 9 15 13 17 11 5 -5 15 2 48 32 8 7 12 19 9 26 -3 7 2 16 11 20 9 3 14 2 10 -3 -3 -5 -2 -11 2 -14 5 -2 3 -3 -3 -1 -6 1 -11 -4 -11 -12 0 -11 5 -11 26 3 40 26 98 53 116 53 8 0 15 5 15 11 0 5 -4 8 -8 5 -5 -3 -9 1 -9 9 0 10 4 12 12 5 10 -9 70 5 85 20 3 3 10 5 15 6 40 3 99 44 63 44 -6 0 -9 3 -6 6 4 3 15 1 26 -5 21 -11 72 5 72 24 0 6 5 3 10 -5 8 -13 11 -13 19 -1 5 8 14 10 21 6 8 -5 11 -4 7 2 -6 9 70 32 130 39 41 5 66 16 54 23 -6 4 8 8 32 9 79 3 96 5 93 11 -3 4 14 7 37 8 23 1 94 8 157 15 131 16 469 15 595 -1z m571 -106 c-11 -8 -25 -15 -30 -15 -6 1 0 7 14 15 32 19 40 18 16 0z m-2000 -25 c0 -12 -4 -16 -9 -11 -5 5 -6 14 -3 20 10 15 12 14 12 -9z m49 -50 c-3 -5 -12 -10 -18 -10 -7 0 -6 4 3 10 19 12 23 12 15 0z m2370 -19 c3 -5 2 -12 -3 -15 -5 -3 -9 1 -9 9 0 17 3 19 12 6z m35 -15 c0 -2 -7 -7 -16 -10 -8 -3 -12 -2 -9 4 6 10 25 14 25 6z m145 -95 c3 -5 2 -12 -3 -15 -5 -3 -9 1 -9 9 0 17 3 19 12 6z m-2890 -30 c3 -5 2 -12 -3 -15 -5 -3 -9 1 -9 9 0 17 3 19 12 6z m-114 -54 c-10 -9 -11 -8 -5 6 3 10 9 15 12 12 3 -3 0 -11 -7 -18z m3044 -46 c3 -5 0 -13 -6 -17 -7 -4 -9 -3 -5 4 3 5 0 13 -6 15 -9 4 -10 6 -1 6 6 1 14 -3 18 -8z m-3206 -25 c9 -11 9 -16 -1 -22 -7 -4 -10 -4 -6 1 4 4 3 14 -3 22 -6 7 -9 13 -6 13 2 0 10 -6 16 -14z m37 -41 c-1 -8 -6 -18 -11 -22 -4 -4 -5 -2 -1 5 4 7 2 12 -6 12 -9 0 -9 3 2 10 19 12 19 13 16 -5z m-112 -50 c-4 -8 -11 -15 -16 -15 -6 0 -5 6 2 15 7 8 14 15 16 15 2 0 1 -7 -2 -15z m46 -20 c0 -1 -10 -10 -22 -21 -14 -12 -18 -13 -10 -3 6 9 10 18 7 21 -3 2 2 5 10 5 8 0 15 -1 15 -2z m3465 -14 c-3 -6 -11 -11 -16 -11 -5 0 -4 6 3 14 14 16 24 13 13 -3z m-3435 5 c0 -2 -7 -7 -16 -10 -8 -3 -12 -2 -9 4 6 10 25 14 25 6z m3549 -52 c-14 -13 -16 -13 -16 0 0 8 5 12 10 9 7 -4 8 1 3 13 -6 15 -5 17 5 6 11 -10 10 -15 -2 -28z m-3699 12 c0 -2 -8 -10 -17 -17 -16 -13 -17 -12 -4 4 13 16 21 21 21 13z m30 -40 c0 -2 -8 -10 -17 -17 -16 -13 -17 -12 -4 4 13 16 21 21 21 13z m3754 -24 c3 -5 -1 -9 -9 -9 -8 0 -12 4 -9 9 3 4 7 8 9 8 2 0 6 -4 9 -8z m-3884 -16 c0 -2 -7 -7 -16 -10 -8 -3 -12 -2 -9 4 6 10 25 14 25 6z m3934 -121 c-4 -8 -11 -15 -16 -15 -6 0 -5 6 2 15 7 8 14 15 16 15 2 0 1 -7 -2 -15z m-4114 -149 c0 -2 -8 -10 -17 -17 -16 -13 -17 -12 -4 4 13 16 21 21 21 13z m4274 -84 c3 -5 -1 -9 -9 -9 -8 0 -12 4 -9 9 3 4 7 8 9 8 2 0 6 -4 9 -8z m126 -46 c0 -3 -4 -8 -10 -11 -5 -3 -10 -1 -10 4 0 6 5 11 10 11 6 0 10 -2 10 -4z m-4606 -87 c-3 -5 -10 -7 -15 -3 -5 3 -7 10 -3 15 3 5 10 7 15 3 5 -3 7 -10 3 -15z m4622 -108 c12 10 13 9 8 -5 -7 -18 -26 -17 -30 2 -1 7 0 8 3 2 3 -8 9 -7 19 1z m297 -536 c-3 -9 -8 -14 -10 -11 -3 3 -2 9 2 15 9 16 15 13 8 -4z m44 -367 c-3 -8 -6 -5 -6 6 -1 11 2 17 5 13 3 -3 4 -12 1 -19z m-20 -740 c-3 -8 -6 -5 -6 6 -1 11 2 17 5 13 3 -3 4 -12 1 -19z m-5160 -420 c-3 -8 -6 -5 -6 6 -1 11 2 17 5 13 3 -3 4 -12 1 -19z m164 -461 c-10 -9 -11 -8 -5 6 3 10 9 15 12 12 3 -3 0 -11 -7 -18z m4611 -251 c7 4 8 2 4 -5 -6 -8 -12 -9 -20 -2 -7 6 -16 8 -20 4 -4 -4 -4 1 0 11 6 16 8 17 16 2 5 -9 14 -13 20 -10z m-4517 -26 c-3 -5 -12 -10 -18 -10 -7 0 -6 4 3 10 19 12 23 12 15 0z m4558 -7 c-3 -7 -6 -13 -8 -13 -2 0 -5 6 -8 13 -3 8 1 14 8 14 7 0 11 -6 8 -14z m-4543 -35 c0 -4 -4 -8 -9 -8 -6 0 -12 4 -15 8 -3 5 1 9 9 9 8 0 15 -4 15 -9z m174 -207 c3 -4 -4 -7 -14 -6 -27 2 -33 10 -10 12 11 1 22 -2 24 -6z m4073 -46 c0 -8 -4 -12 -9 -9 -5 3 -6 10 -3 15 9 13 12 11 12 -6z m-3992 -56 c-6 -9 -35 -1 -35 10 0 4 3 11 7 14 8 9 34 -13 28 -24z m4045 7 c0 -2 -8 -10 -17 -17 -16 -13 -17 -12 -4 4 13 16 21 21 21 13z m-121 -24 c7 -14 6 -19 -4 -19 -8 0 -11 5 -8 10 3 5 -1 13 -8 18 -10 6 -10 9 -2 9 7 0 17 -8 22 -18z m-3854 -50 c-3 -3 -11 0 -18 7 -9 10 -8 11 6 5 10 -3 15 -9 12 -12z m3770 -22 c3 -6 -1 -7 -9 -4 -10 4 -16 1 -16 -7 0 -7 -3 -10 -6 -6 -7 7 4 27 16 27 5 0 12 -4 15 -10z m-3636 -17 c-6 -7 -15 -10 -20 -7 -13 8 -3 21 15 21 12 0 13 -4 5 -14z m3675 -32 c-2 -3 -12 3 -22 13 -16 17 -16 18 5 5 12 -7 20 -15 17 -18z m-3713 2 c13 -16 12 -17 -3 -4 -10 7 -18 15 -18 17 0 8 8 3 21 -13z m3394 -241 c-3 -3 -11 0 -18 7 -9 10 -8 11 6 5 10 -3 15 -9 12 -12z m-14 -35 c-10 -9 -11 -8 -5 6 3 10 9 15 12 12 3 -3 0 -11 -7 -18z m-2996 -57 c10 -11 16 -20 13 -20 -3 0 -13 9 -23 20 -10 11 -16 20 -13 20 3 0 13 -9 23 -20z m115 -66 c0 -8 -19 -13 -24 -6 -3 5 1 9 9 9 8 0 15 -2 15 -3z m457 -120 c-3 -3 -12 -4 -19 -1 -8 3 -5 6 6 6 11 1 17 -2 13 -5z m1879 -41 c-2 -9 -8 -19 -15 -21 -10 -3 -10 0 -2 17 14 25 20 27 17 4z m-1951 -2 c3 -5 2 -12 -3 -15 -5 -3 -9 1 -9 9 0 17 3 19 12 6z"/> <path d="M2730 5594 c-402 -47 -682 -129 -988 -290 -300 -157 -604 -405 -809 -659 -170 -210 -343 -515 -431 -760 -49 -135 -104 -352 -128 -505 -27 -165 -27 -585 0 -755 178 -1153 1058 -2029 2211 -2202 167 -25 573 -25 730 0 477 75 893 254 1250 537 115 92 314 289 406 403 297 368 477 780 556 1273 27 168 24 572 -5 754 -96 589 -362 1094 -792 1503 -380 361 -861 595 -1407 683 -94 15 -510 28 -593 18z m580 -119 c159 -23 394 -84 536 -140 599 -236 1068 -667 1349 -1240 127 -259 184 -452 240 -807 l5 -28 -204 0 c-111 0 -304 3 -428 7 l-224 6 -12 67 c-31 180 -147 447 -270 620 -86 121 -270 306 -392 393 -326 231 -742 340 -1138 296 -697 -75 -1278 -589 -1438 -1273 l-18 -78 -423 3 c-377 4 -423 6 -423 20 0 8 9 65 20 125 43 238 104 422 215 650 122 250 256 442 445 638 412 427 948 689 1550 755 125 14 475 6 610 -14z m-1735 -325 c3 -6 -1 -7 -9 -4 -18 7 -21 14 -7 14 6 0 13 -4 16 -10z m3350 -520 c3 -6 -1 -7 -9 -4 -18 7 -21 14 -7 14 6 0 13 -4 16 -10z m-1635 -113 c303 -72 538 -204 755 -421 224 -224 358 -473 427 -790 19 -86 22 -132 22 -311 0 -179 -3 -224 -22 -308 -93 -416 -334 -768 -681 -992 -96 -62 -274 -146 -381 -180 -162 -51 -303 -68 -510 -62 -151 4 -204 10 -290 30 -303 73 -536 203 -756 422 -218 217 -348 451 -421 755 -20 85 -26 140 -30 287 -6 200 3 290 43 443 143 546 576 978 1120 1116 151 38 206 43 419 39 171 -3 215 -7 305 -28z m1851 -184 c13 -16 12 -17 -3 -4 -10 7 -18 15 -18 17 0 8 8 3 21 -13z m-1143 -116 c14 4 14 3 2 -5 -16 -12 -30 -7 -29 11 0 9 2 9 5 0 3 -7 13 -9 22 -6z m127 -117 c3 -5 1 -10 -4 -10 -6 0 -11 5 -11 10 0 6 2 10 4 10 3 0 8 -4 11 -10z m-2455 -176 c0 -8 -19 -13 -24 -6 -3 5 1 9 9 9 8 0 15 -2 15 -3z m-365 -687 c1 -1 0 -24 -3 -51 l-4 -49 -421 6 c-231 4 -421 8 -423 9 -1 2 0 25 3 52 l6 49 420 -7 c232 -4 422 -8 422 -9z m4140 -80 c4 -27 5 -49 4 -50 -2 -1 -194 -1 -426 1 l-421 2 -4 52 -3 51 422 -4 422 -4 6 -48z m-5028 -62 c0 -8 -4 -12 -9 -9 -5 3 -6 10 -3 15 9 13 12 11 12 -6z m686 -12 l187 -6 0 -54 0 -53 -157 0 c-87 0 -276 3 -420 7 l-263 6 0 54 0 53 233 0 c127 0 316 -3 420 -7z m4347 -90 l0 -58 -420 3 -420 2 0 55 0 55 420 0 420 0 0 -57z m-5026 -62 c3 -5 -2 -15 -12 -22 -15 -12 -16 -12 -5 2 7 9 10 19 6 22 -3 4 -4 7 0 7 3 0 8 -4 11 -9z m866 -26 c0 -5 7 -57 14 -115 66 -490 333 -914 746 -1182 549 -357 1263 -355 1807 5 407 269 679 702 736 1170 l11 97 424 0 423 0 -5 -42 c-3 -24 -8 -74 -12 -113 -23 -263 -111 -561 -244 -830 -133 -268 -294 -489 -501 -689 -493 -475 -1139 -725 -1817 -703 -206 6 -353 27 -547 77 -919 235 -1638 990 -1825 1916 -21 105 -50 334 -50 393 l0 34 420 -4 c271 -3 420 -8 420 -14z m3163 -500 c-3 -9 -8 -14 -10 -11 -3 3 -2 9 2 15 9 16 15 13 8 -4z m-186 -340 c0 -8 -4 -12 -9 -9 -5 3 -6 10 -3 15 9 13 12 11 12 -6z m-3279 -730 c-3 -3 -9 2 -12 12 -6 14 -5 15 5 6 7 -7 10 -15 7 -18z m3862 -31 c0 -8 -19 -13 -24 -6 -3 5 1 9 9 9 8 0 15 -2 15 -3z m-3750 -60 c0 -8 -19 -13 -24 -6 -3 5 1 9 9 9 8 0 15 -2 15 -3z m3710 0 c0 -8 -19 -13 -24 -6 -3 5 1 9 9 9 8 0 15 -2 15 -3z m-45 -32 c-3 -3 -11 0 -18 7 -9 10 -8 11 6 5 10 -3 15 -9 12 -12z m-20 -21 c3 -5 2 -12 -3 -15 -5 -3 -9 1 -9 9 0 17 3 19 12 6z m-82 -86 c-3 -9 -8 -14 -10 -11 -3 3 -2 9 2 15 9 16 15 13 8 -4z m-3088 -255 c-3 -5 -12 -10 -18 -10 -7 0 -6 4 3 10 19 12 23 12 15 0z m2285 -234 c0 -2 -8 -10 -17 -17 -16 -13 -17 -12 -4 4 13 16 21 21 21 13z"/> <path d="M2880 5474 c0 -5 -37 -9 -82 -9 -97 0 -193 -10 -297 -31 -41 -9 -83 -16 -93 -17 -10 -1 -18 -4 -18 -7 0 -3 -16 -6 -35 -7 -20 -1 -42 -6 -50 -13 -8 -6 -19 -9 -25 -5 -5 3 -10 2 -10 -3 0 -5 -9 -12 -20 -15 -12 -3 -18 -1 -14 5 3 5 -8 3 -24 -6 -17 -9 -38 -16 -47 -16 -8 0 -15 -5 -15 -11 0 -6 -7 -8 -16 -5 -10 4 -13 2 -8 -6 5 -8 2 -9 -10 -5 -23 9 -43 -3 -25 -14 10 -6 7 -8 -8 -6 -12 0 -19 5 -17 9 3 5 -6 3 -20 -4 -14 -6 -26 -15 -26 -20 0 -5 -4 -7 -8 -4 -4 2 -28 -5 -52 -16 -25 -12 -48 -22 -52 -22 -3 -1 -10 -4 -14 -8 -4 -5 -16 -8 -26 -8 -10 0 -18 -5 -18 -12 0 -6 -3 -8 -6 -5 -4 4 -19 -2 -33 -12 -14 -10 -54 -33 -88 -51 -35 -18 -63 -37 -63 -41 0 -5 -10 -9 -22 -9 -17 0 -19 -3 -9 -9 10 -7 5 -11 -18 -16 -17 -4 -29 -10 -26 -15 3 -4 -2 -11 -11 -14 -10 -4 -13 -2 -7 7 4 6 -7 1 -24 -13 -18 -14 -30 -31 -27 -39 4 -11 2 -12 -11 -1 -14 12 -19 7 -16 -13 1 -5 -3 -6 -8 -2 -13 8 -52 -26 -44 -38 4 -6 0 -8 -9 -5 -8 4 -20 -2 -27 -13 -6 -11 -17 -17 -23 -13 -6 4 -8 3 -5 -3 4 -5 -5 -16 -18 -23 -13 -7 -22 -16 -20 -20 3 -5 -7 -11 -21 -14 -15 -4 -24 -9 -21 -13 8 -7 -43 -53 -58 -53 -7 0 -18 -7 -25 -15 -13 -15 -1 -21 16 -7 5 4 -7 -7 -26 -25 -19 -18 -42 -32 -50 -33 -12 0 -12 -2 -1 -9 10 -7 9 -11 -8 -23 -11 -8 -18 -18 -14 -22 4 -4 -1 -4 -11 0 -14 5 -17 4 -12 -4 4 -7 1 -12 -10 -12 -12 0 -14 -3 -5 -13 12 -15 -3 -37 -24 -37 -17 0 -46 -35 -38 -44 5 -4 2 -6 -6 -4 -7 1 -16 -3 -19 -11 -3 -9 0 -11 8 -6 8 5 11 4 6 -3 -4 -6 -13 -9 -21 -5 -11 3 -15 -2 -15 -18 0 -12 -3 -19 -7 -16 -3 4 -17 -8 -30 -25 -26 -36 -28 -42 -10 -32 6 4 1 -4 -13 -18 -45 -47 -51 -58 -45 -81 4 -15 3 -18 -3 -8 -13 18 -25 -3 -18 -32 3 -12 3 -16 0 -9 -3 6 -10 12 -15 12 -6 0 -7 -4 -4 -10 3 -5 1 -10 -4 -10 -6 0 -11 -5 -11 -10 0 -6 -9 -21 -21 -33 -11 -12 -25 -41 -32 -64 -6 -23 -14 -40 -19 -37 -4 3 -8 -2 -8 -11 0 -9 -7 -24 -16 -32 -10 -10 -13 -25 -9 -42 4 -18 3 -22 -4 -12 -7 11 -11 10 -20 -7 -6 -11 -11 -29 -11 -38 0 -10 -6 -25 -13 -33 -17 -20 -49 -102 -43 -108 3 -3 -1 -11 -8 -19 -8 -7 -12 -27 -10 -43 2 -21 -1 -30 -9 -28 -7 1 -11 -8 -10 -25 1 -16 -2 -28 -7 -28 -11 0 -29 -67 -33 -122 -1 -14 -5 -24 -9 -21 -5 2 -8 -6 -8 -19 -1 -60 -2 -68 -10 -73 -5 -3 -7 -19 -3 -35 3 -19 1 -30 -6 -30 -6 0 -11 -15 -11 -34 l0 -33 268 -2 c147 -2 324 -4 394 -6 86 -3 130 0 134 7 4 7 3 8 -4 4 -6 -4 -5 5 3 21 8 15 12 37 9 48 -4 16 -3 17 5 5 9 -13 11 -12 12 5 1 11 1 26 0 32 -1 7 10 38 24 68 14 31 25 62 25 70 0 7 5 17 10 20 6 3 10 12 10 18 0 7 -4 6 -10 -3 -5 -8 -10 -10 -10 -5 0 6 9 18 20 28 11 9 20 23 20 32 0 8 9 29 20 47 11 18 20 41 20 51 0 9 5 17 10 17 7 0 6 8 -1 23 -11 20 -11 21 4 8 10 -7 18 -11 18 -7 1 3 2 11 3 16 0 6 13 25 28 44 18 23 23 37 16 44 -6 6 -6 12 3 17 8 6 10 4 4 -5 -6 -9 -4 -11 4 -6 7 5 10 14 7 22 -3 9 1 11 12 8 12 -4 10 1 -7 15 -13 12 -19 21 -14 21 5 0 14 -5 21 -12 9 -9 15 -9 25 1 10 11 9 12 -3 6 -8 -4 3 9 24 29 35 32 37 37 25 53 -12 16 -12 17 2 6 13 -11 20 -7 41 25 13 20 30 36 38 34 11 -3 11 0 -1 14 -8 10 -9 15 -2 11 12 -8 65 38 55 47 -3 3 1 6 8 6 7 0 33 20 57 45 23 25 48 45 53 45 6 0 8 5 4 12 -5 7 -2 9 7 6 8 -3 29 9 48 27 28 27 31 33 16 39 -13 4 -16 2 -12 -9 4 -8 2 -17 -2 -19 -5 -3 -7 5 -6 17 3 30 2 29 26 16 17 -9 25 -7 43 10 12 12 33 21 47 22 22 0 23 1 4 9 l-20 9 20 1 c11 2 24 2 29 1 5 -1 6 5 2 14 -4 13 -1 15 14 10 20 -6 75 27 64 38 -3 3 4 3 17 0 18 -5 21 -3 16 11 -6 14 -3 16 14 11 14 -5 19 -3 15 3 -4 6 3 8 16 4 21 -5 22 -4 8 13 -14 17 -14 18 7 7 14 -8 24 -9 28 -2 4 6 10 8 15 5 4 -2 19 5 34 16 14 11 26 16 26 10 0 -8 6 -7 19 1 11 7 17 17 14 23 -3 5 0 5 7 -2 12 -11 40 -7 51 9 7 11 71 29 64 19 -2 -5 13 -3 34 5 190 65 669 59 835 -11 15 -7 17 -5 11 6 -6 9 0 8 19 -4 18 -12 37 -17 54 -13 18 5 22 4 13 -3 -11 -7 -8 -11 10 -17 13 -4 29 -9 35 -10 5 -1 37 -14 70 -29 59 -27 75 -33 104 -34 13 -1 13 -2 0 -12 -12 -9 -11 -10 7 -6 12 3 27 -1 34 -9 6 -8 18 -14 25 -14 8 0 22 -9 31 -20 10 -11 23 -20 31 -20 7 0 10 -5 6 -12 -4 -6 -3 -8 4 -4 5 3 25 -6 43 -21 18 -16 29 -21 25 -13 -5 8 1 5 13 -7 12 -13 26 -23 32 -23 6 0 7 -4 4 -10 -3 -5 0 -10 8 -10 8 0 35 -20 61 -45 27 -25 51 -45 55 -45 3 0 15 -14 26 -30 11 -17 25 -28 32 -25 7 2 15 -1 19 -7 5 -7 2 -8 -7 -3 -8 5 -2 -4 13 -19 23 -24 30 -26 50 -16 21 10 21 10 6 -3 -20 -16 -25 -32 -6 -21 7 5 9 2 5 -9 -4 -12 -2 -14 10 -10 10 4 14 2 10 -4 -9 -14 22 -54 40 -51 9 2 18 -4 20 -12 4 -13 3 -13 -6 0 -6 8 -11 11 -11 7 0 -17 72 -126 87 -131 8 -4 11 -11 7 -18 -6 -10 -5 -10 7 -1 12 10 15 8 15 -7 0 -10 -5 -16 -11 -13 -11 7 24 -38 39 -48 5 -4 5 -12 1 -19 -5 -9 -4 -11 3 -6 7 4 12 1 12 -9 0 -9 4 -13 10 -10 6 3 7 -1 4 -9 -3 -9 -1 -16 6 -16 6 0 9 -4 5 -9 -8 -14 27 -81 38 -74 6 3 7 1 3 -5 -3 -6 5 -34 19 -64 14 -29 23 -44 20 -33 -5 15 -3 17 5 9 9 -9 9 -17 1 -32 -8 -15 -8 -23 0 -27 6 -4 8 -13 5 -21 -3 -8 -2 -14 3 -14 9 0 20 -43 24 -87 1 -13 5 -23 8 -23 4 0 10 -7 13 -16 3 -8 2 -13 -2 -10 -5 3 -6 -8 -4 -24 2 -16 7 -29 11 -28 3 0 8 0 11 -1 3 -1 165 -4 360 -7 195 -3 363 -7 373 -9 9 -2 17 2 17 8 0 8 3 8 8 2 4 -5 13 -11 21 -13 10 -2 12 4 6 25 -5 15 -9 42 -10 58 -1 17 -5 37 -8 45 -3 8 -5 22 -6 30 0 8 -3 31 -6 50 -4 19 -8 44 -10 55 -1 11 -5 27 -8 35 -7 19 -18 70 -20 92 -1 9 -5 14 -9 12 -4 -3 -8 7 -8 21 0 17 -4 24 -12 19 -6 -4 -8 -3 -5 3 4 6 2 25 -4 44 -5 19 -12 42 -14 52 -9 40 -18 63 -36 88 -10 14 -16 29 -13 32 3 3 -13 42 -35 87 -22 46 -38 87 -34 93 3 6 1 7 -5 3 -6 -4 -18 6 -27 24 -8 16 -13 30 -10 30 3 0 -7 18 -21 40 -29 44 -33 46 -54 28 -13 -11 -13 -11 -2 2 19 22 14 51 -13 76 -25 23 -35 51 -13 38 6 -4 3 4 -8 18 -10 15 -23 25 -29 25 -5 -1 -18 17 -29 40 -12 28 -27 44 -44 48 -19 5 -22 9 -13 18 8 8 3 18 -21 40 -18 16 -26 26 -18 21 8 -4 -3 11 -25 33 -22 22 -43 39 -48 36 -4 -2 -7 -1 -6 4 5 26 -2 33 -20 23 -17 -9 -19 -7 -15 14 3 17 -2 28 -13 35 -10 6 -14 11 -9 11 13 0 -26 29 -40 30 -7 0 -11 -8 -10 -17 1 -20 -26 -25 -30 -5 -1 7 0 8 3 2 7 -15 26 -12 20 4 -3 7 -1 18 5 24 6 6 6 12 -1 16 -6 4 -11 4 -11 -1 0 -4 -9 7 -21 26 -15 24 -25 32 -39 28 -11 -3 -18 -1 -14 4 3 5 -9 24 -26 41 -22 24 -29 28 -24 13 4 -15 4 -17 -4 -6 -9 13 -13 13 -29 1 -16 -13 -16 -12 1 8 12 13 14 22 7 22 -7 0 -10 4 -6 9 3 5 -4 12 -15 16 -11 3 -42 24 -70 46 -27 21 -54 39 -60 39 -6 0 -9 3 -6 8 2 4 -7 13 -21 19 -21 10 -24 10 -19 -3 3 -9 1 -12 -4 -9 -6 3 -10 13 -10 21 0 8 -5 14 -11 14 -6 0 -17 6 -24 13 -37 33 -46 38 -57 31 -6 -4 -8 -3 -5 3 7 12 -14 24 -50 29 -12 1 -34 14 -47 27 -16 16 -34 24 -50 23 -17 -2 -23 1 -19 10 3 8 -1 15 -8 15 -8 1 -18 2 -24 4 -5 1 -17 3 -25 4 -13 1 -13 2 0 12 12 8 11 9 -6 7 -11 -2 -29 3 -38 11 -9 8 -31 14 -47 14 -19 0 -25 3 -17 9 10 6 10 8 -2 9 -8 1 -18 1 -22 0 -5 0 -8 3 -8 8 0 5 -16 12 -35 15 -20 4 -55 15 -78 25 -24 10 -64 18 -90 17 -40 -1 -45 1 -30 12 17 12 16 13 -27 16 -14 1 -42 7 -63 15 -21 7 -47 11 -58 8 -10 -3 -17 -2 -14 3 5 8 -53 20 -115 24 -19 2 -66 8 -105 14 -38 7 -86 12 -105 11 -19 0 -81 3 -137 7 -59 4 -103 3 -103 -2z m88 -11 c-10 -2 -26 -2 -35 0 -10 3 -2 5 17 5 19 0 27 -2 18 -5z m-591 -79 c-3 -3 -12 -4 -19 -1 -8 3 -5 6 6 6 11 1 17 -2 13 -5z m1130 -10 c-3 -3 -12 -4 -19 -1 -8 3 -5 6 6 6 11 1 17 -2 13 -5z m-1756 -241 c11 -15 11 -16 0 -6 -7 6 -21 9 -30 6 -14 -4 -14 -3 -1 6 8 6 16 11 16 11 1 0 8 -8 15 -17z m2433 9 c3 -5 -1 -9 -9 -9 -8 0 -12 4 -9 9 3 4 7 8 9 8 2 0 6 -4 9 -8z m-2754 -248 c0 -8 -19 -13 -24 -6 -3 5 1 9 9 9 8 0 15 -2 15 -3z m3170 -90 c0 -2 -9 0 -20 6 -11 6 -20 13 -20 16 0 2 9 0 20 -6 11 -6 20 -13 20 -16z m-3320 -59 c0 -2 -10 -10 -22 -16 -21 -11 -22 -11 -9 4 13 16 31 23 31 12z m1540 -49 c0 -2 -7 -7 -16 -10 -8 -3 -12 -2 -9 4 6 10 25 14 25 6z m-1630 -36 c0 -5 -5 -10 -11 -10 -5 0 -7 5 -4 10 3 6 8 10 11 10 2 0 4 -4 4 -10z m-74 -65 c-1 -8 -8 -21 -16 -28 -10 -10 -11 -9 -4 3 5 8 9 18 10 23 3 14 4 17 8 17 2 0 3 -7 2 -15z m3717 -16 c5 -3 2 -9 -5 -12 -9 -3 -14 3 -15 15 -1 11 1 16 5 12 4 -5 11 -12 15 -15z m-3800 -81 c3 -8 -5 -14 -20 -14 -22 -2 -23 -1 -6 12 22 17 20 16 26 2z m2934 -104 c-3 -3 -12 -4 -19 -1 -8 3 -5 6 6 6 11 1 17 -2 13 -5z m1038 -14 c3 -5 1 -10 -4 -10 -6 0 -11 5 -11 10 0 6 2 10 4 10 3 0 8 -4 11 -10z m-1020 -18 c-3 -3 -11 0 -18 7 -9 10 -8 11 6 5 10 -3 15 -9 12 -12z m-2115 -46 c0 -2 -7 -7 -16 -10 -8 -3 -12 -2 -9 4 6 10 25 14 25 6z m2198 -12 c-1 -5 -9 -9 -16 -10 -10 -2 -11 1 -1 12 12 14 24 13 17 -2z m-3277 -121 c-12 -20 -14 -14 -5 12 4 9 9 14 11 11 3 -2 0 -13 -6 -23z m4353 -79 c3 -8 2 -12 -4 -9 -6 3 -10 10 -10 16 0 14 7 11 14 -7z m-874 -34 c0 -5 -2 -10 -4 -10 -3 0 -8 5 -11 10 -3 6 -1 10 4 10 6 0 11 -4 11 -10z m-3565 -69 c3 -5 2 -12 -3 -15 -5 -3 -9 1 -9 9 0 17 3 19 12 6z m3688 -16 c-3 -9 -8 -14 -10 -11 -3 3 -2 9 2 15 9 16 15 13 8 -4z m-28 -15 c3 -6 -1 -7 -9 -4 -18 7 -21 14 -7 14 6 0 13 -4 16 -10z m860 -20 c-3 -5 -12 -10 -18 -10 -7 0 -6 4 3 10 19 12 23 12 15 0z m-670 -281 c11 -16 1 -19 -13 -3 -7 8 -8 14 -3 14 5 0 13 -5 16 -11z"/> <path d="M1066 4608 c3 -5 10 -6 15 -3 13 9 11 12 -6 12 -8 0 -12 -4 -9 -9z"/> <path d="M2770 4523 c-30 -2 -49 -7 -43 -11 6 -4 -11 -8 -38 -9 -27 -1 -58 -7 -70 -14 -16 -8 -20 -8 -14 1 6 9 2 9 -14 1 -12 -7 -27 -9 -33 -5 -6 4 -9 3 -5 -2 3 -5 -6 -14 -19 -21 -13 -6 -22 -7 -18 -2 6 11 -10 12 -20 2 -4 -5 -11 -8 -14 -9 -4 0 -16 -4 -27 -8 -11 -5 -27 -10 -35 -14 -8 -3 -19 -4 -23 -3 -4 0 -18 -4 -30 -11 -12 -7 -25 -11 -29 -10 -13 4 -9 -16 5 -21 6 -3 2 -4 -10 -4 -12 1 -19 5 -16 10 3 5 -4 3 -16 -5 -19 -12 -19 -13 -3 -20 12 -5 8 -7 -13 -5 -16 1 -31 -2 -32 -8 -1 -5 5 -9 12 -9 8 1 12 -2 10 -7 -3 -5 -18 -6 -33 -3 -20 4 -33 0 -43 -12 -13 -16 -12 -16 11 -5 23 11 24 11 6 -3 -16 -13 -22 -13 -35 -3 -12 10 -14 9 -8 -7 6 -16 5 -17 -7 -7 -11 9 -16 9 -22 0 -5 -8 -3 -9 6 -4 9 5 11 4 6 -4 -4 -6 -16 -9 -27 -6 -13 4 -19 2 -19 -9 0 -10 -6 -13 -15 -9 -9 3 -15 1 -13 -5 2 -5 0 -9 -4 -8 -3 0 -17 -9 -30 -22 -14 -12 -28 -19 -33 -15 -4 5 -5 2 -1 -4 5 -9 0 -13 -16 -13 -15 0 -19 -3 -11 -8 9 -6 6 -11 -8 -21 -17 -10 -20 -10 -14 1 5 7 -8 -2 -28 -21 -20 -19 -34 -38 -31 -43 6 -10 17 -11 11 0 -6 12 31 43 39 31 3 -6 1 -16 -6 -22 -10 -9 -11 -9 -6 3 4 8 0 6 -9 -5 -9 -11 -24 -19 -33 -17 -10 1 -28 -9 -40 -23 -25 -28 -28 -40 -9 -29 6 4 9 4 5 -1 -4 -4 -18 -13 -30 -19 -13 -6 -24 -20 -26 -31 -3 -18 0 -17 18 5 19 22 20 22 11 3 -14 -27 -28 -36 -36 -23 -3 5 -11 10 -16 10 -6 0 -8 -4 -5 -8 3 -5 -6 -16 -19 -26 -14 -10 -22 -22 -20 -27 7 -11 -26 -49 -37 -43 -5 3 -7 2 -6 -3 3 -11 -20 -53 -45 -80 -11 -13 -16 -23 -10 -23 6 0 13 3 16 8 2 4 2 2 1 -5 -2 -6 2 -14 9 -16 7 -3 -1 -4 -18 -4 -19 1 -29 -2 -28 -10 2 -7 -2 -13 -7 -13 -6 0 -10 -9 -10 -21 0 -12 -4 -18 -11 -13 -7 4 -10 1 -7 -7 3 -8 12 -13 21 -13 9 1 15 -2 12 -6 -3 -5 -1 -11 4 -14 6 -4 8 7 6 26 -3 18 -1 27 3 21 5 -9 20 5 44 41 25 38 32 58 26 68 -7 9 -8 7 -3 -7 5 -15 3 -17 -6 -8 -14 14 -3 34 16 26 9 -3 15 1 15 11 0 9 6 13 14 10 11 -4 14 1 12 20 -2 14 1 23 5 20 16 -10 31 7 19 21 -8 10 -6 13 7 11 12 0 17 5 17 17 -1 10 0 16 4 13 3 -3 16 6 29 20 12 14 23 21 23 17 1 -11 24 30 25 42 0 6 7 10 15 10 9 0 14 8 12 18 -2 9 1 16 6 15 14 -4 74 51 67 61 -3 5 5 7 17 3 21 -5 22 -4 9 11 -12 15 -12 17 2 11 18 -7 100 54 91 67 -3 5 2 6 10 3 14 -6 54 16 90 48 10 10 23 15 28 12 4 -3 8 -1 8 4 0 5 19 15 41 22 25 9 44 22 47 33 4 15 7 16 14 5 7 -10 11 -10 14 -1 3 7 12 9 21 6 10 -4 14 -2 10 4 -4 6 12 15 40 23 26 6 53 16 59 21 6 5 30 11 54 14 49 6 63 13 55 26 -4 5 -1 9 4 9 6 0 11 -4 11 -10 0 -12 62 -1 71 13 4 5 12 6 18 3 6 -4 26 -2 45 4 54 17 337 15 446 -5 52 -9 110 -17 128 -18 22 0 28 -3 20 -9 -9 -6 -7 -8 7 -7 29 2 85 -12 85 -22 0 -5 7 -6 15 -3 8 4 15 1 15 -7 0 -7 3 -9 7 -6 3 4 12 2 20 -4 7 -6 13 -7 13 -2 0 5 7 10 15 10 12 0 12 -3 3 -16 -7 -9 -9 -13 -4 -9 4 4 43 -11 85 -34 42 -22 87 -41 101 -42 18 -1 25 -6 24 -19 -1 -10 0 -16 3 -13 3 2 23 -9 45 -25 32 -22 44 -26 55 -18 7 7 16 9 20 5 3 -3 1 -6 -7 -6 -10 0 -10 -4 1 -17 12 -14 12 -16 0 -8 -10 5 -12 4 -7 -3 4 -7 16 -12 26 -12 10 0 26 -8 36 -17 10 -10 20 -17 23 -16 3 1 5 -4 3 -11 -1 -7 8 -21 20 -32 18 -15 20 -16 9 -1 -9 11 -10 17 -2 17 6 0 13 -10 16 -23 3 -12 20 -30 36 -39 17 -10 27 -22 24 -28 -4 -6 -2 -9 3 -8 9 3 72 -59 72 -70 0 -4 19 -26 43 -51 27 -29 35 -42 22 -37 -14 5 -10 -2 13 -23 19 -18 30 -36 26 -43 -4 -7 -3 -8 4 -4 7 4 14 -3 18 -19 3 -14 11 -22 17 -18 6 4 8 0 4 -11 -4 -10 -1 -19 9 -23 8 -3 13 -12 10 -19 -3 -8 1 -14 9 -14 8 0 16 -6 16 -12 2 -24 5 -33 22 -70 9 -21 17 -42 17 -48 0 -6 4 -8 10 -5 6 4 9 -4 7 -17 -1 -15 3 -22 11 -20 8 1 11 -2 7 -7 -10 -17 6 -61 24 -62 10 0 11 -2 4 -6 -7 -2 -13 -11 -13 -19 0 -9 4 -13 9 -10 4 3 7 -10 5 -29 -2 -27 1 -33 14 -28 10 4 13 2 8 -5 -4 -6 0 -61 9 -122 8 -61 15 -130 15 -153 0 -31 3 -38 10 -27 12 19 13 5 1 -18 -5 -9 -11 -73 -14 -142 -4 -115 -28 -250 -48 -276 -5 -6 -10 -28 -11 -50 -2 -21 -9 -45 -15 -52 -14 -15 -18 -36 -5 -28 5 3 9 -1 9 -8 0 -8 -6 -12 -12 -9 -12 4 -30 -49 -26 -72 2 -5 -1 -7 -5 -3 -4 4 -15 -8 -25 -27 -20 -37 -25 -60 -8 -35 8 13 9 12 7 -4 -2 -10 3 -21 10 -23 13 -5 62 89 62 120 0 10 4 16 9 13 5 -4 8 5 7 19 -2 13 0 23 3 20 4 -2 14 16 23 41 9 27 11 41 4 37 -6 -3 -5 0 2 8 6 7 12 22 12 34 0 12 4 25 9 31 11 10 42 194 35 205 -2 4 0 19 6 34 7 19 7 24 -1 19 -9 -5 -10 1 -4 22 10 39 11 130 1 177 -5 30 -4 37 5 31 7 -4 10 -3 6 2 -3 5 -13 63 -22 129 -9 66 -20 125 -26 131 -5 6 -6 14 -2 17 3 4 1 13 -6 21 -6 8 -11 18 -10 22 4 22 -2 35 -12 28 -8 -4 -9 0 -4 15 4 13 2 21 -5 21 -6 0 -10 6 -9 13 3 25 -1 38 -11 32 -6 -4 -10 8 -10 29 0 19 -4 37 -9 40 -5 4 -7 -4 -3 -16 3 -14 1 -19 -6 -14 -6 3 -9 16 -7 28 5 26 -34 120 -47 112 -4 -3 -8 4 -8 15 0 11 -7 27 -16 35 -8 9 -13 16 -9 16 3 0 1 9 -5 21 -10 17 -14 18 -28 8 -14 -11 -15 -11 -4 1 16 19 15 33 -3 27 -8 -4 -17 -1 -21 5 -4 7 -3 8 4 4 21 -13 12 14 -13 39 -13 14 -21 25 -18 25 3 0 -1 8 -10 18 -10 10 -14 22 -10 27 5 4 -2 5 -14 2 -13 -3 -26 0 -30 5 -3 7 -1 8 5 4 14 -8 15 3 3 23 -5 8 -14 10 -21 6 -8 -5 -11 -4 -7 2 4 6 -10 28 -31 49 -20 22 -38 43 -39 48 -1 6 -8 11 -16 12 -7 1 -29 16 -48 34 -19 18 -28 30 -21 26 6 -4 12 -4 12 -1 0 3 -13 11 -30 16 -18 7 -27 16 -23 22 3 7 2 9 -2 4 -5 -4 -19 3 -32 15 -13 12 -23 18 -23 13 0 -5 -6 0 -14 10 -14 19 -53 14 -41 -5 5 -8 11 -7 21 1 12 10 13 9 8 -5 -9 -22 -17 -20 -45 11 -13 15 -17 22 -8 15 15 -11 29 -7 29 9 0 4 -16 16 -35 28 -19 11 -35 16 -35 11 0 -16 -17 -12 -24 6 -4 10 -2 13 6 8 7 -4 8 -3 4 4 -4 7 -12 12 -17 12 -6 0 -35 11 -65 25 -30 14 -61 25 -70 25 -8 0 -12 4 -9 10 3 5 0 7 -8 4 -8 -3 -22 2 -30 11 -9 9 -20 16 -24 16 -4 -1 -45 11 -90 25 -45 14 -88 22 -94 18 -8 -4 -9 -3 -5 4 5 8 -5 12 -31 13 -21 0 -47 3 -58 6 -46 12 -335 23 -425 16z m407 -29 c-3 -3 -12 -4 -19 -1 -8 3 -5 6 6 6 11 1 17 -2 13 -5z m-610 -50 c-3 -3 -12 -4 -19 -1 -8 3 -5 6 6 6 11 1 17 -2 13 -5z m903 -25 c0 -14 -17 -10 -23 5 -4 10 -1 13 9 9 7 -3 14 -9 14 -14z m-1076 -7 c2 -4 -5 -9 -17 -9 -17 -2 -19 0 -7 7 18 12 18 12 24 2z m1248 -69 c-10 -4 -9 -9 5 -20 17 -13 16 -13 -5 -3 -22 11 -22 31 1 29 8 0 8 -2 -1 -6z m422 -322 c-3 -3 -15 6 -27 18 l-22 24 27 -19 c14 -10 24 -21 22 -23z m84 -86 c3 -3 -4 -4 -16 -2 -12 2 -24 6 -28 10 -4 3 4 4 16 2 12 -2 25 -7 28 -10z m33 -52 c13 -16 12 -17 -3 -4 -17 13 -22 21 -14 21 2 0 10 -8 17 -17z m206 -1305 c-3 -8 -6 -5 -6 6 -1 11 2 17 5 13 3 -3 4 -12 1 -19z m-74 -253 c-3 -9 -8 -14 -10 -11 -3 3 -2 9 2 15 9 16 15 13 8 -4z"/> <path d="M2750 4445 c-437 -60 -832 -322 -1055 -700 -89 -151 -138 -280 -177 -460 -29 -135 -31 -415 -5 -550 60 -297 197 -555 407 -765 365 -365 884 -509 1383 -384 263 66 482 191 676 384 207 206 339 452 402 750 29 136 31 386 5 530 -91 504 -439 926 -916 1113 -215 84 -482 115 -720 82z m-469 -198 c-10 -9 -11 -8 -5 6 3 10 9 15 12 12 3 -3 0 -11 -7 -18z m-294 -192 c0 -8 -4 -12 -9 -9 -5 3 -6 10 -3 15 9 13 12 11 12 -6z m-22 -45 c3 -6 -1 -7 -9 -4 -18 7 -21 14 -7 14 6 0 13 -4 16 -10z m491 -205 c26 -32 42 -44 54 -40 12 4 31 -7 55 -29 21 -20 46 -34 57 -33 12 1 29 -9 42 -26 20 -27 20 -29 3 -38 -16 -10 -15 -14 15 -52 18 -23 48 -57 66 -75 17 -18 32 -40 32 -50 1 -24 35 -62 57 -62 14 -1 12 -4 -8 -15 -25 -14 -69 -75 -69 -96 0 -6 15 -1 34 10 19 12 40 19 49 16 17 -7 31 33 21 62 -5 13 -2 12 11 -5 12 -16 14 -27 7 -35 -15 -18 52 -97 82 -97 25 0 61 -33 52 -48 -7 -11 51 -55 63 -47 15 9 61 -13 61 -30 0 -8 18 -24 40 -35 48 -24 51 -25 43 -4 -5 14 -2 16 23 10 34 -9 54 -24 54 -41 0 -20 75 -46 111 -38 25 5 35 2 48 -15 18 -22 117 -56 126 -42 6 9 60 -3 78 -18 23 -18 103 -26 233 -23 115 3 137 1 178 -17 25 -12 46 -26 46 -31 0 -6 6 -11 13 -11 35 0 86 -134 87 -228 0 -37 -4 -45 -32 -62 -74 -46 -375 -118 -608 -146 -79 -9 -301 -18 -610 -24 -267 -5 -604 -13 -750 -16 -279 -7 -403 1 -478 32 -42 16 -42 16 -42 69 0 106 12 205 26 205 10 0 14 31 16 128 3 90 11 163 31 253 38 179 57 359 57 552 l0 169 38 -6 c60 -10 301 -26 384 -26 l78 0 14 34 c12 30 49 66 68 66 3 0 23 -20 44 -45z m851 -700 c0 -8 -4 -12 -9 -9 -5 3 -6 10 -3 15 9 13 12 11 12 -6z m44 -12 c13 -16 12 -17 -3 -4 -17 13 -22 21 -14 21 2 0 10 -8 17 -17z"/> <path d="M2386 3804 c-3 -9 -3 -21 1 -26 3 -6 2 -8 -3 -5 -6 3 -16 2 -24 -4 -10 -6 4 -9 43 -9 39 0 56 4 52 11 -4 6 -13 8 -19 6 -7 -3 -13 1 -13 9 0 7 5 10 11 7 6 -4 5 1 -3 11 -11 13 -16 14 -22 4 -4 -6 -5 -16 -2 -22 3 -5 1 -6 -5 -2 -6 4 -9 13 -5 21 3 8 3 15 0 15 -3 0 -8 -7 -11 -16z"/> <path d="M1867 3743 c-4 -3 -7 -50 -7 -103 0 -53 -5 -157 -11 -231 -6 -73 -12 -145 -12 -159 -1 -14 -6 -28 -11 -32 -6 -4 -4 -14 5 -24 12 -15 12 -17 0 -9 -11 6 -13 4 -8 -8 3 -9 -1 -33 -9 -52 -8 -20 -12 -45 -9 -55 3 -11 0 -32 -8 -47 -7 -15 -13 -35 -12 -43 1 -8 -4 -21 -9 -29 -6 -8 -12 -66 -13 -130 -2 -64 -5 -122 -8 -128 -3 -10 21 -13 103 -14 59 -1 118 -2 132 -4 14 -1 180 -6 370 -9 508 -9 892 11 1295 69 114 17 144 26 85 26 -57 1 -134 7 -150 12 -24 8 -231 41 -270 43 -34 2 -74 14 -116 35 -12 6 -30 10 -40 8 -18 -2 -31 1 -82 22 -13 5 -27 7 -32 4 -5 -3 -11 -1 -15 5 -3 5 -11 10 -16 10 -6 0 -8 -4 -5 -8 3 -5 -8 -8 -24 -8 -16 0 -27 3 -24 7 2 5 11 6 19 2 9 -3 15 1 15 11 0 9 -3 15 -7 14 -5 -1 -27 10 -50 26 -23 15 -46 25 -52 22 -5 -4 -13 -1 -17 5 -4 8 -3 9 4 5 7 -4 12 -2 12 5 0 6 -8 9 -20 6 -11 -3 -18 -2 -15 3 2 4 -14 24 -37 44 -31 28 -43 34 -49 24 -7 -10 -9 -10 -9 0 0 6 -5 12 -11 12 -5 0 -8 -4 -5 -8 3 -5 -1 -9 -9 -9 -8 0 -15 4 -15 9 0 4 5 8 10 8 7 0 7 6 0 20 -6 11 -8 20 -4 20 3 0 1 7 -6 15 -7 8 -16 12 -21 9 -5 -3 -6 2 -3 11 7 16 -18 17 -43 2 -8 -5 -13 -4 -13 2 0 10 14 15 33 12 12 -2 8 16 -6 28 -8 6 -17 7 -21 3 -4 -4 -6 -2 -4 3 5 17 -29 58 -43 50 -8 -5 -10 -4 -5 3 9 15 -18 55 -29 44 -5 -4 -5 -2 -2 5 4 6 -5 26 -20 44 -16 18 -21 29 -13 24 11 -6 10 -3 -2 12 -10 11 -18 24 -18 30 0 6 -4 13 -9 15 -5 2 -11 12 -13 23 -1 11 -9 26 -15 33 -7 7 -13 22 -13 31 0 10 -7 24 -15 31 -9 7 -14 19 -11 27 3 8 1 11 -4 8 -8 -5 -15 10 -8 18 3 2 -42 79 -51 87 -4 3 -8 14 -9 25 -2 11 -9 23 -15 27 -8 5 -8 8 2 8 8 0 11 3 8 6 -8 9 -38 -16 -32 -26 2 -4 -17 -3 -43 2 -26 5 -83 8 -127 8 -82 0 -182 6 -246 15 -20 3 -39 2 -42 -2z m483 -38 c0 -8 -4 -15 -10 -15 -5 0 -7 7 -4 15 4 8 8 15 10 15 2 0 4 -7 4 -15z m94 -173 c3 -5 -1 -9 -9 -9 -8 0 -12 4 -9 9 3 4 7 8 9 8 2 0 6 -4 9 -8z m-181 -21 c9 -1 15 -6 12 -11 -7 -11 24 -22 38 -13 7 3 9 3 5 -2 -11 -11 50 -58 64 -49 10 6 10 4 0 -8 -9 -11 -10 -18 -2 -23 21 -13 40 -79 40 -139 0 -48 -7 -75 -30 -124 -28 -57 -48 -85 -33 -45 4 11 3 14 -5 9 -7 -4 -12 -11 -12 -16 0 -18 -33 -48 -46 -43 -7 2 -23 -2 -36 -10 -47 -31 -156 -26 -196 8 -17 14 -35 25 -41 25 -6 0 -25 12 -42 28 -17 15 -35 28 -40 28 -5 1 -11 2 -14 3 -4 0 -2 9 3 18 7 12 5 24 -5 40 -12 19 -15 41 -10 101 3 42 11 78 16 80 6 2 9 8 5 13 -3 5 0 9 5 9 6 0 10 3 10 8 -3 20 2 32 16 32 8 0 15 4 15 10 0 5 12 17 28 25 15 9 20 14 12 12 -10 -3 -16 2 -16 12 0 10 6 18 13 18 7 0 10 -4 8 -8 -3 -4 6 -6 20 -5 14 0 23 6 21 12 -3 9 120 12 197 5z m57 5 c0 -2 -8 -10 -17 -17 -16 -13 -17 -12 -4 4 13 16 21 21 21 13z m301 -303 c11 -15 11 -16 -1 -6 -9 9 -19 9 -34 2 -20 -10 -20 -10 -2 5 24 19 21 20 37 -1z m-576 -162 c3 -6 -3 -9 -14 -8 -11 0 -17 5 -15 9 7 11 22 10 29 -1z m772 -51 c-1 -12 -5 -16 -10 -11 -5 5 -6 14 -3 20 11 16 15 13 13 -9z m383 -159 c0 -5 -9 -7 -20 -4 -11 3 -20 7 -20 9 0 2 9 4 20 4 11 0 20 -4 20 -9z m-323 -28 c32 -37 30 -77 -6 -102 -37 -27 -51 -26 -81 2 -14 12 -27 21 -31 20 -10 -3 -7 31 5 46 9 12 8 13 -4 7 -8 -4 -2 3 14 16 25 19 50 32 76 37 2 1 15 -11 27 -26z m268 17 c3 -6 -1 -7 -9 -4 -18 7 -21 14 -7 14 6 0 13 -4 16 -10z m-522 -25 c19 -12 27 -26 26 -44 0 -24 -17 -76 -18 -59 -1 4 -16 1 -35 -7 -32 -14 -36 -13 -56 8 -28 29 -55 90 -37 84 6 -2 20 6 29 19 21 26 51 26 91 -1z m-125 -80 c-3 -3 -9 2 -12 12 -6 14 -5 15 5 6 7 -7 10 -15 7 -18z m405 -32 c-7 -2 -19 -2 -25 0 -7 3 -2 5 12 5 14 0 19 -2 13 -5z"/> <path d="M2129 3489 c-116 -18 -191 -105 -191 -219 0 -128 96 -220 229 -220 73 0 127 24 175 78 79 87 77 205 -5 290 -59 62 -126 85 -208 71z"/> <path d="M2795 2790 c-26 -29 -7 -70 33 -70 50 0 69 41 34 73 -25 22 -45 21 -67 -3z m59 -18 c9 -14 -12 -35 -28 -29 -23 9 -20 37 3 37 11 0 22 -4 25 -8z"/> <path d="M2538 2775 c-9 -21 -8 -28 7 -45 10 -11 26 -20 35 -20 9 0 25 9 35 20 27 30 7 70 -35 70 -23 0 -33 -6 -42 -25z m62 -15 c0 -13 -7 -20 -20 -20 -19 0 -27 20 -13 33 13 14 33 6 33 -13z"/> <path d="M2372 3742 c34 -83 207 -411 237 -452 64 -86 229 -247 303 -296 130 -87 240 -121 558 -173 261 -43 390 -59 396 -50 2 4 -10 10 -28 13 -18 2 -114 16 -213 31 -519 75 -650 124 -848 314 -124 120 -188 208 -268 372 -104 213 -123 249 -132 249 -5 0 -7 -4 -5 -8z"/> <path d="M2410 3747 c0 -2 11 -18 24 -36 24 -32 25 -32 36 -11 10 19 14 20 28 8 9 -8 31 -15 47 -16 27 -1 28 0 13 12 -10 7 -16 16 -13 19 3 4 2 5 -1 2 -4 -2 -13 3 -21 11 -23 23 -29 7 -7 -18 12 -16 9 -14 -12 5 -20 17 -41 27 -62 27 -18 0 -32 -1 -32 -3z m53 -32 c-3 -9 -8 -14 -10 -11 -3 3 -2 9 2 15 9 16 15 13 8 -4z"/> <path d="M2467 3684 c-14 -19 -15 -24 -4 -24 20 0 42 29 31 40 -5 5 -16 -2 -27 -16z"/> <path d="M2570 3664 c-20 -18 -28 -30 -21 -37 12 -12 71 -2 96 17 16 12 17 16 6 30 -19 23 -45 20 -81 -10z"/> <path d="M2500 3649 c-25 -47 57 -94 91 -52 13 15 11 16 -18 10 -43 -8 -64 15 -38 43 18 19 17 20 -3 20 -12 0 -26 -9 -32 -21z"/> <path d="M2615 3599 c2 -10 -3 -23 -11 -29 -7 -7 -11 -17 -7 -24 5 -8 3 -8 -8 0 -8 6 -27 9 -42 7 -16 -2 -26 0 -23 5 3 5 -2 9 -10 9 -10 0 -11 -4 -4 -11 5 -5 10 -18 10 -28 0 -10 5 -18 10 -18 6 0 10 5 10 12 0 6 3 8 6 5 4 -4 2 -13 -5 -21 -9 -11 -7 -20 12 -42 l24 -28 -2 49 c-3 45 -2 47 10 26 7 -13 14 -19 16 -12 2 6 21 12 42 13 20 1 37 5 37 10 0 5 5 6 11 2 7 -4 7 2 -1 17 -16 30 -25 39 -17 17 3 -10 3 -20 -2 -22 -4 -3 -8 0 -9 7 -3 32 -10 51 -20 55 -7 2 -10 7 -8 11 3 4 -1 8 -9 8 -7 0 -12 -8 -10 -18z m30 -17 c-3 -3 -11 0 -18 7 -9 10 -8 11 6 5 10 -3 15 -9 12 -12z m-15 -30 c0 -12 -22 -32 -34 -32 -6 0 -3 5 7 11 9 6 15 14 12 20 -4 5 -1 9 4 9 6 0 11 -4 11 -8z"/> <path d="M2673 3490 c-61 -37 -35 -58 46 -38 51 13 51 13 36 36 -20 27 -40 28 -82 2z"/> <path d="M2600 3475 c-31 -37 38 -94 81 -67 13 9 20 8 30 -4 10 -12 9 -13 -7 -7 -16 6 -17 5 -6 -9 10 -13 10 -18 1 -24 -8 -4 -9 -3 -5 4 4 7 1 12 -8 12 -9 0 -16 -5 -16 -11 0 -8 -4 -8 -12 -1 -7 6 -17 11 -23 11 -28 3 -45 14 -46 29 0 12 -2 13 -6 4 -3 -8 4 -22 16 -33 12 -11 18 -25 15 -31 -5 -7 -1 -9 9 -5 11 4 14 2 11 -7 -3 -8 4 -16 15 -19 12 -3 21 -1 21 5 0 5 4 6 10 3 5 -3 7 0 4 8 -3 8 1 14 10 14 8 0 12 -5 9 -11 -3 -6 4 -1 16 12 19 19 41 22 41 6 0 -3 -5 -2 -12 2 -7 4 -8 3 -4 -4 10 -16 12 -15 35 10 l21 21 -21 15 c-13 9 -18 20 -14 33 4 11 2 19 -4 19 -6 0 -11 -4 -11 -9 0 -5 -10 -7 -22 -4 -17 3 -19 2 -9 -5 9 -7 -1 -9 -33 -8 -59 3 -76 18 -51 46 18 19 18 20 -2 20 -11 0 -26 -7 -33 -15z"/> <path d="M2710 3311 c-12 -24 -4 -48 21 -61 28 -16 57 -12 68 9 14 25 2 35 -20 15 -10 -9 -25 -14 -34 -11 -19 8 -20 36 0 43 22 9 18 24 -5 24 -10 0 -24 -9 -30 -19z"/> <path d="M2646 3295 c4 -8 8 -15 10 -15 2 0 4 7 4 15 0 8 -4 15 -10 15 -5 0 -7 -7 -4 -15z"/> <path d="M2670 3299 c0 -5 5 -7 10 -4 6 3 10 8 10 11 0 2 -4 4 -10 4 -5 0 -10 -5 -10 -11z"/> <path d="M2825 3290 c3 -5 8 -10 11 -10 2 0 4 5 4 10 0 6 -5 10 -11 10 -5 0 -7 -4 -4 -10z"/> <path d="M2845 3279 c-11 -6 -26 -22 -33 -37 -14 -33 -56 -40 -84 -15 -23 21 -24 9 0 -15 10 -10 24 -16 32 -14 7 3 10 0 7 -6 -9 -13 17 -34 29 -24 4 4 2 -1 -6 -11 -7 -10 -9 -17 -3 -15 6 2 19 -6 29 -17 11 -12 16 -16 13 -10 -4 5 -3 28 1 50 4 22 8 34 9 26 1 -15 15 -7 17 10 1 5 2 11 3 14 0 3 10 1 20 -4 28 -16 48 11 28 39 -7 11 -17 17 -20 13 -4 -3 -7 1 -7 10 0 19 -6 20 -35 6z m57 -46 c-6 -2 -9 -10 -6 -15 4 -7 2 -8 -5 -4 -13 9 -5 26 12 25 9 0 8 -2 -1 -6z m-83 -67 c-3 -3 -11 5 -18 17 -13 21 -12 21 5 5 10 -10 16 -20 13 -22z"/> <path d="M2681 3263 c7 -12 15 -20 18 -17 3 2 -3 12 -13 22 -17 16 -18 16 -5 -5z"/> <path d="M2926 3205 c-15 -14 -26 -35 -26 -50 l0 -26 41 23 c54 30 65 44 49 63 -17 21 -33 19 -64 -10z"/> <path d="M2860 3175 c-30 -36 28 -104 68 -78 9 5 18 17 20 26 3 14 -1 14 -28 4 -25 -10 -33 -9 -40 3 -5 8 -5 21 1 31 17 32 2 42 -21 14z"/> <path d="M2980 3148 c-5 -13 -9 -17 -9 -9 -1 8 -4 11 -7 8 -10 -10 17 -38 29 -30 6 4 7 1 3 -6 -5 -7 -13 -10 -20 -8 -14 5 -34 -14 -29 -29 4 -11 -25 -12 -43 -1 -6 3 -11 0 -11 -8 0 -8 6 -15 12 -15 7 0 20 -10 29 -22 9 -13 14 -16 10 -8 -6 12 -4 12 12 -1 10 -9 27 -19 37 -22 16 -6 16 -4 2 23 -10 19 -11 31 -4 35 7 5 7 11 0 19 -7 8 -4 12 11 13 11 1 27 10 35 20 8 10 12 12 8 6 -3 -7 -1 -13 4 -13 23 0 9 26 -24 48 l-35 22 -10 -22z m28 -13 c-3 -3 -9 2 -12 12 -6 14 -5 15 5 6 7 -7 10 -15 7 -18z"/> <path d="M3071 3092 c-5 -26 -7 -50 -5 -54 9 -13 35 4 50 34 18 35 14 53 -15 61 -17 4 -21 -2 -30 -41z"/> <path d="M2738 3103 c6 -2 10 -8 7 -13 -3 -4 2 -11 10 -14 13 -4 14 -2 5 14 -6 11 -16 20 -23 19 -9 0 -9 -2 1 -6z"/> <path d="M3021 3061 c-8 -14 -6 -25 10 -45 32 -41 89 -30 89 18 0 18 -1 18 -25 -4 -23 -22 -27 -22 -41 -8 -13 12 -14 20 -5 37 10 17 9 21 -3 21 -9 0 -20 -9 -25 -19z"/> <path d="M3145 3070 c3 -5 2 -10 -3 -10 -5 0 -7 -11 -4 -26 6 -30 -33 -78 -58 -69 -8 3 -4 -3 10 -14 31 -24 89 -36 103 -22 8 8 8 11 -1 11 -14 0 -16 39 -2 60 5 8 15 15 21 15 23 0 19 20 -5 31 -16 7 -28 8 -34 2 -6 -6 -13 -5 -17 3 -6 8 -4 10 6 4 12 -8 12 -6 0 8 -15 18 -26 23 -16 7z"/> <path d="M3240 3026 c0 -37 4 -56 14 -59 32 -12 37 86 6 103 -19 10 -20 8 -20 -44z"/> <path d="M3213 2989 c-20 -20 -16 -37 12 -55 21 -14 31 -15 50 -6 24 11 36 52 15 52 -5 0 -10 -6 -10 -14 0 -37 -47 -27 -52 10 -2 20 -5 23 -15 13z"/> <path d="M3317 2984 c3 -8 12 -13 20 -10 8 3 12 2 8 -3 -3 -5 -2 -11 2 -14 5 -2 3 -3 -3 -1 -6 1 -18 -13 -27 -32 -9 -19 -13 -35 -9 -35 39 -7 51 -4 55 12 6 23 -11 26 -19 4 -4 -8 -11 -15 -16 -15 -7 0 -6 5 1 13 6 8 7 17 3 21 -4 4 -2 7 3 5 20 -5 44 13 38 28 -4 11 -2 14 5 9 7 -4 12 -2 12 4 0 7 -7 9 -15 6 -9 -3 -18 0 -21 7 -2 7 -13 13 -24 14 -13 1 -17 -3 -13 -13z"/> <path d="M3410 2986 c0 -27 23 -77 34 -73 16 5 20 55 5 73 -15 18 -39 18 -39 0z"/> <path d="M3020 2986 c0 -3 9 -10 20 -16 11 -6 20 -8 20 -6 0 3 -9 10 -20 16 -11 6 -20 8 -20 6z"/> <path d="M3391 2936 c-13 -15 -12 -20 6 -38 36 -35 104 -22 89 18 -6 16 -7 16 -19 -1 -18 -23 -50 -16 -57 14 -5 22 -6 22 -19 7z"/> <path d="M3511 2914 c-9 -20 -9 -24 1 -19 7 4 2 -2 -11 -13 l-24 -19 22 -6 c17 -4 24 0 31 16 8 20 9 20 9 -7 1 -36 10 -30 13 8 2 16 8 31 15 33 7 3 13 10 13 15 0 6 -11 3 -25 -6 -19 -13 -23 -13 -19 -2 10 26 -13 26 -25 0z"/> <path d="M3607 2905 c19 -39 36 -41 41 -5 4 24 -12 40 -40 40 -17 0 -17 -2 -1 -35z"/> <path d="M3582 2888 c-17 -21 9 -48 47 -48 34 0 60 25 43 42 -8 8 -13 7 -18 -5 -9 -26 -52 -22 -56 5 -3 19 -4 19 -16 6z"/> <path d="M3704 2865 c3 -18 0 -25 -11 -25 -26 0 -5 -14 25 -17 54 -6 81 -11 94 -19 13 -7 -48 64 -67 78 -5 4 -18 8 -28 8 -13 0 -16 -6 -13 -25z"/> <path d="M3770 2881 c0 -5 27 -32 61 -60 l61 -49 92 25 c128 35 126 35 126 43 0 4 -9 15 -21 26 -18 17 -40 19 -170 22 -97 2 -149 0 -149 -7z"/> <path d="M4067 2804 c-80 -28 -256 -65 -418 -89 l-116 -17 13 -48 c7 -26 18 -83 25 -127 7 -43 15 -81 18 -85 7 -8 201 23 327 52 102 24 169 44 237 72 l47 20 0 52 c0 62 -23 146 -48 174 -17 19 -17 19 -85 -4z"/> <path d="M3390 2685 c-225 -27 -434 -35 -882 -34 -254 0 -534 4 -621 8 -122 5 -157 3 -157 -6 0 -7 9 -13 20 -13 18 0 20 -7 20 -69 l0 -68 33 -7 c90 -19 1369 5 1596 29 80 8 146 16 147 18 7 7 -31 157 -40 156 -6 -1 -58 -7 -116 -14z"/> <path d="M1726 2623 c-7 -7 -8 -193 -2 -193 2 0 11 -3 19 -6 12 -4 15 11 16 94 1 79 -1 101 -13 105 -8 3 -17 3 -20 0z"/> <path d="M3435 2504 c-60 -7 -234 -17 -385 -23 -348 -13 -1228 -19 -1257 -8 -21 8 -23 5 -23 -27 0 -32 3 -36 38 -43 74 -16 1627 5 1729 23 30 6 31 8 26 43 -3 20 -8 38 -12 41 -3 3 -55 0 -116 -6z"/> <path d="M1569 3639 c-9 -27 -15 -36 -21 -27 -7 12 -12 -10 -11 -49 1 -7 -3 -10 -8 -7 -5 3 -9 -3 -9 -13 0 -10 -8 -29 -17 -42 -9 -14 -11 -21 -5 -17 16 10 15 7 -8 -42 -23 -47 -42 -131 -41 -179 0 -18 -4 -35 -9 -38 -6 -4 -8 -11 -4 -16 3 -5 10 -7 15 -4 5 3 6 -1 2 -10 -5 -13 -7 -14 -14 -3 -11 16 -10 27 -14 -162 -2 -80 1 -172 6 -205 5 -33 11 -75 14 -93 2 -19 12 -61 21 -95 9 -34 19 -74 21 -90 3 -15 10 -30 16 -34 6 -4 8 0 4 11 -4 11 -3 15 4 11 6 -4 8 -14 5 -22 -3 -8 -3 -20 1 -26 8 -13 9 -18 11 -56 2 -17 6 -22 18 -17 14 6 15 4 4 -10 -12 -13 -11 -17 1 -25 8 -5 10 -9 6 -9 -5 0 -1 -7 7 -16 9 -8 16 -24 16 -34 0 -10 5 -22 12 -26 7 -5 8 -3 3 6 -5 8 -4 11 3 6 6 -4 9 -13 5 -21 -3 -8 -1 -15 5 -15 6 0 13 6 15 13 3 6 4 -1 4 -18 -2 -22 2 -30 15 -30 9 0 20 -4 25 -9 4 -5 3 -6 -4 -2 -7 4 -13 2 -13 -4 0 -6 -6 -8 -12 -4 -7 4 -3 -4 10 -18 12 -13 22 -29 22 -35 0 -6 7 -16 15 -23 8 -7 12 -16 9 -21 -3 -5 2 -6 11 -3 11 4 14 2 9 -9 -8 -21 14 -31 33 -15 15 12 15 11 2 -10 -12 -21 -12 -24 4 -33 9 -6 17 -17 17 -25 0 -8 4 -13 8 -10 5 3 15 -4 23 -16 26 -38 85 -98 96 -98 7 0 15 -5 19 -12 5 -7 3 -8 -7 -3 -8 5 3 -10 25 -32 25 -27 44 -39 54 -35 10 3 13 1 8 -6 -4 -7 -1 -12 9 -12 10 0 13 -5 9 -12 -4 -6 -3 -8 4 -4 6 3 13 2 17 -4 4 -6 11 -8 16 -4 5 3 8 2 7 -3 -2 -4 8 -19 21 -32 19 -19 23 -20 18 -6 -6 15 -5 16 8 5 8 -7 12 -17 8 -23 -4 -7 0 -8 11 -4 10 4 21 7 24 7 4 0 -4 10 -18 21 l-25 20 33 -16 c32 -15 33 -17 15 -30 -15 -12 -15 -14 -3 -15 9 0 21 5 28 12 9 9 12 9 12 0 0 -6 -8 -16 -17 -21 -10 -6 -12 -11 -5 -11 20 0 27 4 24 15 -2 6 0 6 5 2 4 -5 8 -14 8 -20 0 -7 14 -11 33 -10 29 1 31 0 16 -12 -16 -11 -14 -15 24 -33 23 -11 39 -15 36 -9 -3 7 0 5 8 -4 18 -21 46 -30 52 -16 2 7 5 4 5 -6 1 -11 7 -17 14 -14 6 2 29 -4 50 -15 21 -10 42 -16 46 -13 5 3 11 0 13 -5 2 -6 17 -13 33 -15 17 -2 30 -4 30 -5 0 -3 67 -12 102 -13 17 -1 29 -5 27 -8 -2 -4 6 -9 19 -13 34 -9 75 -7 82 4 3 5 12 10 18 10 8 0 8 -3 -1 -9 -18 -11 8 -22 46 -20 27 1 27 1 -3 9 l-30 8 27 1 c15 0 29 -3 32 -8 4 -5 54 -9 114 -9 71 0 100 3 87 9 -13 6 -5 7 27 3 27 -4 62 -1 85 7 21 7 43 13 48 14 6 0 35 5 65 9 39 6 49 11 36 16 -19 6 -19 7 2 12 12 4 22 2 22 -4 0 -6 6 -5 15 2 11 9 15 9 15 1 0 -8 8 -6 23 4 13 8 27 12 32 8 4 -5 5 -2 0 6 -6 11 -3 13 14 8 22 -5 22 -5 5 14 -9 10 -24 19 -33 19 -14 0 -14 -2 -1 -11 11 -8 7 -9 -17 -4 -20 4 -45 1 -65 -8 -81 -36 -325 -67 -473 -60 -60 3 -126 6 -147 7 -20 0 -34 4 -32 7 5 9 -64 21 -76 14 -6 -3 -10 -1 -10 4 0 6 -8 11 -17 11 -10 1 -35 7 -55 14 -21 8 -35 10 -32 5 9 -15 -13 -10 -25 5 -15 18 -54 29 -44 13 3 -7 -3 -4 -14 6 -11 9 -30 17 -42 17 -14 0 -20 4 -15 12 5 8 2 9 -9 5 -10 -3 -17 -3 -17 1 0 4 -11 12 -25 19 -15 6 -22 7 -19 1 7 -11 -40 17 -68 40 -10 8 -18 11 -18 7 0 -5 -10 1 -22 12 -13 11 -51 36 -84 56 -34 20 -67 44 -74 52 -7 8 -22 15 -34 15 -18 0 -19 2 -6 11 12 9 11 10 -8 6 -12 -3 -20 -1 -16 4 3 5 -9 22 -27 38 -27 25 -36 28 -53 19 -21 -11 -21 -11 -2 11 11 11 16 22 13 22 -4 1 -13 2 -19 3 -7 0 -13 6 -14 11 -2 22 -17 45 -25 39 -5 -3 -12 2 -15 10 -3 9 -10 16 -16 16 -5 0 -6 -5 -2 -12 4 -7 3 -8 -5 -4 -9 6 -9 11 1 24 11 13 10 15 -4 9 -12 -4 -15 -2 -11 9 3 9 -11 30 -37 54 -23 21 -39 44 -36 49 3 5 3 11 -2 13 -11 4 -57 81 -54 91 4 12 -16 8 -22 -5 -3 -7 -4 -4 -1 8 3 13 -3 30 -16 45 -11 13 -17 18 -13 10 5 -10 3 -12 -5 -7 -9 6 -9 11 0 22 9 11 5 24 -17 61 -16 27 -27 52 -26 57 2 4 -2 14 -8 20 -5 7 -7 16 -4 19 3 3 -1 16 -10 29 -9 12 -16 33 -16 45 0 13 -4 23 -9 23 -8 0 -27 98 -24 127 0 7 -3 10 -8 7 -5 -3 -10 12 -11 33 0 21 -2 50 -2 65 -2 30 -16 51 -16 23 0 -10 -3 -16 -6 -12 -11 10 7 48 19 40 7 -4 7 0 -1 10 -15 18 -15 184 0 225 4 13 4 21 -1 18 -5 -3 -12 1 -15 10 -9 24 -7 31 4 14 9 -13 10 -13 10 0 4 61 13 126 19 139 5 9 12 33 15 55 4 21 12 50 18 65 6 14 12 32 14 39 1 8 5 16 8 19 3 3 1 15 -5 26 -7 12 -7 17 -1 13 11 -7 26 22 23 43 -1 7 2 11 6 8 8 -5 13 10 16 54 1 9 7 14 14 12 9 -4 11 0 6 13 -4 12 -3 15 5 10 8 -4 10 -2 6 8 -12 32 -33 25 -45 -15z m-42 -194 c0 -8 -4 -12 -9 -9 -5 3 -6 10 -3 15 9 13 12 11 12 -6z m-90 -397 c-3 -8 -6 -5 -6 6 -1 11 2 17 5 13 3 -3 4 -12 1 -19z m0 -110 c-3 -8 -6 -5 -6 6 -1 11 2 17 5 13 3 -3 4 -12 1 -19z m30 -180 c-3 -8 -6 -5 -6 6 -1 11 2 17 5 13 3 -3 4 -12 1 -19z m120 -380 c-3 -8 -6 -5 -6 6 -1 11 2 17 5 13 3 -3 4 -12 1 -19z m375 -523 c4 -20 3 -23 -8 -14 -7 6 -10 18 -7 26 5 12 3 14 -7 8 -9 -5 -11 -4 -6 4 10 16 23 6 28 -24z m1285 -321 c-3 -3 -12 -4 -19 -1 -8 3 -5 6 6 6 11 1 17 -2 13 -5z m-474 -41 c-7 -2 -19 -2 -25 0 -7 3 -2 5 12 5 14 0 19 -2 13 -5z"/> <path d="M4263 2295 c4 -8 1 -17 -5 -21 -7 -5 -8 -2 -4 7 4 8 0 5 -8 -6 -9 -11 -14 -25 -11 -33 2 -7 1 -10 -5 -7 -11 7 -33 -32 -25 -45 3 -5 0 -12 -6 -16 -8 -5 -9 -3 -4 7 5 8 4 11 0 6 -13 -11 -16 -45 -5 -52 11 -7 50 25 50 40 0 5 -5 3 -10 -5 -7 -10 -10 -11 -10 -2 0 7 7 15 15 19 19 7 50 62 46 82 -1 7 2 10 8 6 15 -9 14 8 -1 23 -17 17 -31 15 -25 -3z"/> <path d="M4164 2143 c4 -7 2 -13 -4 -13 -6 0 -10 -8 -8 -17 2 -12 -3 -17 -14 -15 -10 2 -18 -1 -18 -6 0 -4 -9 -18 -20 -30 -12 -12 -17 -22 -13 -22 4 0 1 -4 -7 -10 -8 -5 -11 -12 -7 -16 4 -4 15 0 25 9 10 10 22 14 26 10 6 -7 33 24 34 40 1 4 11 16 22 25 l22 17 -23 20 c-12 11 -19 14 -15 8z m-14 -77 c0 -2 -7 -7 -16 -10 -8 -3 -12 -2 -9 4 6 10 25 14 25 6z"/> <path d="M4100 2015 c-7 -9 -20 -13 -28 -10 -8 3 -21 -3 -29 -15 -8 -11 -19 -18 -24 -14 -5 3 -8 0 -7 -7 2 -7 -4 -13 -12 -14 -8 0 -15 -6 -15 -13 0 -7 -6 -16 -13 -21 -8 -5 -13 -11 -13 -15 3 -21 -2 -26 -26 -26 -14 0 -23 -3 -20 -7 6 -5 -28 -36 -43 -39 -20 -4 -39 -18 -34 -25 3 -5 11 -6 17 -2 9 5 9 3 0 -8 -7 -8 -8 -20 -4 -28 7 -10 12 -7 25 10 9 13 21 25 26 25 6 1 15 2 21 3 8 1 8 6 -1 16 -11 13 -10 14 4 9 10 -4 16 -1 16 7 0 7 3 9 7 6 9 -9 34 13 27 24 -3 5 5 9 18 9 16 0 19 3 10 9 -11 7 -10 9 3 15 9 3 13 11 10 16 -4 6 -2 9 2 8 5 -2 26 12 47 30 20 17 33 32 29 32 -4 0 2 6 13 14 10 8 16 17 13 20 -3 4 -12 -1 -19 -9z m-40 -38 c0 -2 -10 -12 -22 -23 l-23 -19 19 23 c18 21 26 27 26 19z m-156 -158 c3 -3 -4 -5 -14 -6 -11 -1 -22 2 -24 6 -5 8 30 8 38 0z"/> <path d="M3935 1900 c-3 -5 -1 -10 4 -10 6 0 11 5 11 10 0 6 -2 10 -4 10 -3 0 -8 -4 -11 -10z"/> <path d="M3820 1791 c-8 -6 -17 -8 -21 -5 -4 2 -10 0 -13 -5 -4 -5 -2 -13 4 -16 8 -5 8 -11 0 -20 -9 -11 -7 -14 9 -12 11 0 18 4 15 8 -2 4 3 9 10 12 8 3 14 15 13 26 -1 12 -1 21 -2 21 0 0 -7 -4 -15 -9z"/> <path d="M3735 1740 c-10 -11 -23 -20 -28 -20 -6 0 -19 -8 -30 -17 -12 -11 -17 -12 -12 -4 10 17 -9 8 -40 -19 -11 -10 -37 -23 -57 -30 -21 -6 -38 -14 -38 -17 0 -3 7 -2 16 1 9 4 13 2 8 -5 -3 -6 -17 -9 -30 -6 -28 5 -60 -15 -50 -31 9 -15 57 -11 74 5 7 7 24 13 37 13 13 0 27 4 30 10 4 6 -1 7 -12 4 -14 -4 -15 -4 -4 4 7 5 22 7 34 4 14 -3 18 -1 13 6 -4 7 -1 13 8 13 37 3 41 5 38 23 -3 14 1 16 17 11 10 -3 22 -1 26 5 3 5 15 10 25 10 23 0 35 16 19 26 -8 5 -9 3 -4 -7 6 -11 5 -11 -5 -2 -7 6 -20 9 -28 5 -14 -5 -15 -4 -2 10 8 9 18 12 21 6 3 -5 12 -2 19 7 20 24 -23 20 -45 -5z"/> <path d="M484 3206 c-3 -8 -3 -19 0 -25 4 -6 134 -10 339 -10 182 0 351 -3 374 -7 48 -7 76 5 78 34 1 19 -6 20 -392 21 -340 2 -394 0 -399 -13z"/> <path d="M4630 3163 c0 -28 -40 -25 422 -27 335 -1 358 0 358 17 0 16 -17 17 -212 18 -117 1 -293 4 -391 8 l-177 6 0 -22z"/> <path d="M476 3052 c-3 -5 -4 -17 -2 -28 3 -18 13 -19 237 -20 129 -1 303 -3 387 -4 84 -2 157 1 162 6 5 5 7 19 4 31 l-6 22 -389 0 c-213 0 -390 -3 -393 -7z"/> <path d="M4638 2995 l-5 -25 271 0 c149 -1 326 -2 394 -4 l122 -3 0 28 0 29 -389 0 -389 0 -4 -25z"/> <path d="M480 2837 c1 -28 7 -97 16 -152 20 -138 21 -147 29 -175 4 -14 7 -33 7 -42 -1 -10 2 -18 6 -18 4 0 8 -12 9 -27 4 -57 22 -123 34 -123 5 0 7 -11 3 -24 -4 -17 0 -27 13 -35 10 -6 14 -11 10 -11 -4 0 -3 -10 4 -21 8 -15 8 -19 0 -15 -6 4 -11 2 -11 -4 0 -6 7 -13 15 -16 9 -4 15 -11 14 -18 -4 -29 3 -45 28 -70 20 -21 22 -25 7 -20 -18 7 -18 7 -1 -13 9 -11 17 -27 17 -35 0 -9 12 -40 27 -70 28 -54 29 -58 32 -80 1 -10 3 -10 10 0 6 10 10 4 14 -18 4 -20 11 -29 18 -24 7 4 9 0 5 -14 -5 -14 2 -28 23 -47 16 -16 27 -34 24 -42 -7 -19 7 -16 24 5 13 15 13 15 3 -5 -10 -22 -7 -27 13 -24 5 1 6 -3 2 -9 -3 -6 -11 -7 -17 -4 -7 5 -8 2 -3 -7 18 -30 50 -74 58 -80 5 -3 8 -9 8 -13 -2 -12 46 -76 52 -69 4 3 7 -3 7 -15 0 -14 5 -20 14 -16 8 3 17 0 22 -7 4 -8 3 -10 -4 -5 -19 12 -14 -6 9 -30 12 -12 26 -21 33 -20 6 2 8 1 4 -1 -9 -6 2 -33 14 -33 5 0 6 6 2 13 -6 9 -4 9 8 -1 10 -8 14 -21 10 -35 -3 -12 -2 -19 2 -16 4 4 20 -5 36 -19 21 -19 26 -28 17 -34 -9 -6 -9 -8 1 -8 7 0 31 -14 53 -32 28 -23 36 -34 27 -40 -9 -5 -8 -8 5 -8 10 0 16 -4 12 -9 -3 -5 0 -13 6 -17 8 -4 9 -3 5 4 -4 7 -3 12 1 12 11 0 48 -44 43 -50 -3 -3 4 -6 16 -8 12 -2 27 -14 34 -28 10 -18 16 -21 22 -12 5 9 8 8 8 -5 0 -10 4 -16 9 -12 5 3 12 -3 15 -13 6 -16 23 -29 70 -50 5 -3 5 2 1 9 -5 8 -4 11 1 6 5 -5 9 -16 9 -25 0 -10 7 -16 18 -16 10 1 16 0 13 -3 -9 -10 64 -61 96 -68 23 -5 27 -9 17 -16 -10 -6 -8 -9 9 -9 12 0 22 -4 22 -9 0 -5 33 -25 73 -46 39 -21 80 -45 90 -53 9 -8 17 -12 17 -7 0 4 7 2 15 -5 8 -6 20 -8 26 -4 7 4 9 3 6 -3 -7 -11 12 -23 46 -30 10 -1 45 -16 78 -33 54 -26 63 -28 61 -9 -1 4 8 4 20 1 20 -5 21 -6 3 -12 -12 -4 -15 -9 -8 -13 6 -4 19 -4 29 0 13 5 15 3 9 -7 -6 -9 -4 -11 5 -5 7 4 15 4 19 -1 9 -13 71 -35 110 -39 19 -2 37 -8 40 -13 3 -6 26 -12 51 -15 25 -3 90 -15 144 -27 54 -12 109 -20 122 -17 13 2 22 1 19 -2 -4 -8 22 -10 152 -14 51 -1 93 -6 93 -10 0 -9 187 -7 204 1 4 3 42 6 85 8 42 2 87 6 101 10 14 3 38 7 53 9 16 2 45 6 65 10 21 4 48 9 62 11 62 11 86 17 98 27 7 5 15 7 19 4 10 -10 34 14 27 27 -3 6 1 4 8 -6 9 -11 19 -13 29 -8 8 5 26 11 40 14 47 10 130 42 124 48 -3 3 6 3 21 0 23 -4 26 -2 20 13 -5 14 -3 15 6 7 9 -7 19 -6 32 4 11 8 27 14 37 14 9 0 22 6 28 14 7 8 22 12 34 9 18 -4 19 -3 7 6 -12 9 -11 11 8 11 12 0 22 4 22 10 0 5 7 6 17 3 11 -5 14 -3 8 6 -5 10 -2 11 12 7 13 -4 26 1 38 14 10 11 28 20 39 20 17 0 18 2 6 10 -11 7 -7 10 17 10 30 0 52 14 36 23 -5 2 -2 2 4 1 7 -2 27 9 45 24 18 15 29 20 24 12 -4 -9 -1 -7 7 2 8 10 19 18 26 18 6 0 11 6 11 14 0 8 4 18 10 21 6 4 7 -1 3 -12 -6 -16 -5 -17 13 -3 10 8 25 21 32 28 8 7 27 19 43 27 16 9 29 20 29 26 0 6 4 8 8 5 5 -3 25 10 45 28 26 23 33 36 26 43 -8 8 -7 13 2 18 8 6 10 4 4 -5 -6 -9 -2 -10 16 -5 32 10 62 42 53 57 -5 8 -2 9 10 5 11 -5 15 -3 10 5 -5 8 -2 9 10 5 12 -5 20 1 28 18 6 14 15 25 20 25 13 0 43 31 43 44 1 6 6 10 12 9 20 -4 37 25 24 41 -8 10 -9 16 -1 21 9 6 14 -1 11 -17 0 -5 3 -8 9 -8 13 0 31 36 22 45 -4 3 0 5 8 3 9 -2 14 4 14 14 -1 10 2 15 8 12 5 -3 21 7 36 22 15 15 20 24 12 20 -8 -5 2 8 24 27 24 22 35 40 30 48 -4 8 -3 10 4 5 7 -4 17 3 24 18 6 14 15 26 20 26 5 0 6 5 2 11 -4 7 10 26 32 46 21 19 34 32 28 29 -7 -3 -15 2 -18 11 -4 10 -4 15 -1 11 7 -6 44 25 47 40 0 4 8 12 16 18 9 7 13 18 9 28 -4 9 -3 15 1 13 4 -3 20 13 35 35 16 22 23 37 17 33 -6 -3 -1 11 11 32 53 93 90 174 83 184 -4 8 -3 9 4 5 7 -4 14 4 18 21 4 15 10 33 15 38 9 13 51 153 52 178 1 9 4 17 7 17 6 0 25 63 35 115 3 17 8 41 11 55 3 14 7 35 9 47 2 12 6 27 11 34 5 8 3 9 -5 4 -10 -6 -10 -2 0 16 7 13 12 39 12 57 -1 18 2 30 5 28 4 -2 7 11 8 29 0 19 -3 32 -6 30 -7 -4 -2 24 16 98 6 25 4 27 -27 28 -28 1 -30 2 -11 7 13 4 -147 6 -355 4 -360 -2 -414 -5 -400 -19 4 -3 2 -15 -4 -26 -8 -15 -8 -18 1 -12 9 6 10 1 4 -16 -4 -13 -7 -35 -7 -49 1 -14 -3 -31 -9 -38 -6 -6 -11 -39 -12 -71 0 -33 -4 -54 -7 -49 -7 12 -14 -7 -25 -64 -3 -21 -10 -36 -14 -33 -5 3 -7 -6 -4 -21 3 -16 1 -23 -6 -19 -6 4 -7 -1 -3 -11 4 -10 2 -15 -3 -11 -5 3 -11 -6 -12 -21 -1 -14 -7 -31 -12 -36 -14 -14 -13 -29 2 -20 7 5 8 3 4 -5 -5 -7 -11 -10 -14 -6 -9 8 -43 -66 -35 -78 4 -6 1 -7 -7 -2 -9 5 -10 2 -5 -14 5 -16 3 -20 -9 -15 -12 5 -15 2 -9 -12 4 -12 3 -15 -5 -10 -8 5 -12 0 -12 -12 0 -11 -7 -25 -16 -32 -8 -7 -14 -23 -12 -34 3 -26 -10 -48 -23 -40 -5 3 -16 0 -24 -6 -17 -14 -21 -35 -5 -25 6 3 10 1 10 -4 0 -6 -8 -11 -17 -12 -15 0 -15 -2 2 -9 19 -8 19 -9 -2 -9 -12 -1 -29 -11 -37 -23 -21 -30 -20 -44 2 -27 15 11 15 11 4 -1 -7 -8 -20 -15 -30 -15 -9 0 -21 -10 -28 -23 -6 -12 -15 -26 -19 -30 -5 -4 -5 -1 0 7 5 9 4 12 -3 7 -6 -4 -8 -14 -5 -23 4 -11 3 -14 -5 -9 -19 11 -14 -5 6 -21 15 -13 15 -13 -6 -3 -20 10 -27 8 -49 -14 -14 -14 -30 -26 -36 -26 -6 0 -7 -3 -4 -6 4 -4 15 -1 24 7 15 11 16 11 6 -1 -16 -18 -17 -34 -1 -24 7 4 8 3 4 -5 -6 -9 -11 -9 -22 0 -13 10 -21 6 -47 -21 -18 -18 -27 -30 -20 -26 10 5 11 -12 3 -34 -1 -3 -2 -9 -1 -13 1 -5 -3 -6 -9 -2 -8 5 -8 11 0 20 8 9 7 14 -4 18 -7 3 -28 -9 -47 -29 -18 -19 -39 -34 -47 -34 -7 0 -10 -4 -7 -10 3 -5 2 -10 -4 -10 -6 0 -19 -10 -31 -22 -11 -12 -20 -18 -20 -14 0 5 -15 -3 -34 -17 -18 -15 -36 -24 -38 -22 -3 3 -13 -4 -23 -15 -10 -11 -23 -20 -30 -20 -7 0 -20 -9 -29 -19 -11 -12 -25 -17 -39 -14 -18 4 -19 3 -7 -6 13 -9 13 -11 -2 -11 -9 0 -19 -6 -21 -12 -4 -10 -6 -10 -6 -1 -1 8 -24 2 -67 -17 -36 -17 -70 -30 -74 -30 -5 0 -30 -10 -57 -22 -26 -12 -59 -23 -73 -24 -14 -2 -63 -12 -110 -23 -46 -11 -116 -23 -155 -27 -96 -9 -288 -9 -355 -1 -116 15 -196 30 -229 43 -19 8 -43 12 -54 8 -12 -4 -17 -2 -13 4 4 6 -2 8 -14 5 -12 -3 -20 0 -20 7 0 9 -11 11 -37 7 -21 -4 -33 -3 -26 1 9 6 7 11 -7 20 -14 8 -20 9 -20 1 0 -6 -7 -3 -16 5 -8 9 -20 17 -25 17 -5 1 -13 2 -18 3 -5 0 -13 4 -16 8 -4 4 -16 3 -26 -2 -12 -7 -20 -6 -25 2 -4 6 -3 8 4 4 6 -3 13 -2 16 3 7 11 -41 24 -57 14 -9 -5 -9 -3 -1 8 9 11 3 18 -32 35 -24 11 -40 16 -37 10 3 -6 0 -5 -8 2 -16 15 -33 16 -23 0 4 -7 3 -8 -4 -4 -6 4 -9 13 -5 22 3 8 2 14 -3 13 -5 -1 -18 -1 -29 0 -17 1 -18 3 -5 11 12 8 11 10 -6 10 -11 0 -29 9 -39 20 -10 12 -25 18 -33 15 -13 -5 -13 -3 -1 12 8 9 9 14 3 10 -5 -3 -28 10 -50 30 -21 19 -55 47 -74 62 -19 14 -42 33 -50 41 -14 14 -14 14 -5 0 6 -10 2 -9 -12 4 -13 10 -21 21 -19 25 5 9 -61 71 -68 64 -3 -4 -6 -1 -6 6 0 19 -42 71 -53 64 -6 -3 -7 -1 -3 5 4 7 2 12 -5 12 -7 0 -10 3 -6 6 3 3 -15 25 -39 47 -25 23 -50 51 -56 62 -6 11 6 2 27 -20 l37 -40 -28 40 c-15 22 -33 43 -38 47 -6 4 -7 8 -2 8 4 0 -8 20 -27 44 -20 24 -33 47 -29 50 3 4 0 11 -8 16 -8 5 -15 15 -15 22 -1 20 -39 98 -48 98 -4 0 -6 4 -3 9 3 5 -1 14 -9 21 -8 7 -15 18 -15 24 0 6 5 4 10 -4 16 -25 11 -4 -9 37 -31 61 -52 124 -45 134 3 5 1 16 -5 23 -7 8 -14 29 -17 47 -3 19 -8 45 -10 59 -3 14 -10 66 -16 116 l-12 92 -393 1 -393 0 0 -52z m4147 -189 c-3 -7 -5 -2 -5 12 0 14 2 19 5 13 2 -7 2 -19 0 -25z m-3451 1 c4 -6 20 -8 40 -4 24 4 34 2 34 -7 0 -7 3 -23 6 -35 5 -19 2 -23 -16 -23 -13 0 -37 -9 -56 -20 -30 -19 -32 -23 -22 -51 6 -17 16 -28 22 -26 7 3 23 -1 36 -8 17 -9 30 -10 43 -3 23 12 24 12 33 -36 5 -31 4 -38 -7 -34 -8 3 -25 1 -38 -3 -19 -8 -21 -12 -11 -24 7 -8 16 -12 21 -9 5 3 9 0 9 -6 0 -8 6 -8 21 0 23 13 22 13 38 -17 14 -27 14 -43 1 -43 -6 0 -48 -18 -94 -39 -57 -28 -85 -47 -89 -61 -8 -30 20 -38 39 -11 8 11 21 21 27 21 7 0 6 -4 -3 -11 -21 -15 28 -1 55 15 40 25 51 25 51 2 -1 -22 1 -22 45 -11 20 5 28 2 33 -12 3 -10 9 -23 12 -30 3 -7 -10 -18 -32 -28 l-38 -16 24 -16 c18 -13 27 -14 41 -5 26 16 26 16 45 -19 11 -23 13 -34 5 -42 -6 -6 -11 -18 -11 -27 0 -9 -5 -21 -12 -28 -6 -6 -13 -18 -14 -26 -2 -12 3 -12 31 0 25 10 36 11 41 2 4 -6 3 -8 -4 -4 -6 3 -13 2 -17 -4 -10 -16 24 -24 41 -9 14 11 19 9 35 -11 24 -32 24 -37 -1 -45 -11 -3 -20 -11 -20 -16 0 -16 29 -22 44 -10 11 9 22 2 52 -36 22 -25 54 -62 72 -81 29 -31 31 -36 18 -51 -10 -11 -12 -21 -6 -31 7 -12 12 -12 28 4 19 17 21 17 41 -1 22 -18 28 -43 11 -43 -17 0 -11 -29 9 -39 14 -8 22 -7 31 4 10 12 16 10 38 -12 20 -20 25 -35 23 -60 -1 -20 2 -33 9 -33 6 0 9 4 6 9 -3 4 6 6 20 3 14 -2 21 -8 15 -11 -6 -4 -3 -11 9 -18 14 -10 19 -9 24 2 7 19 23 19 42 1 16 -17 18 -42 4 -51 -5 -3 -14 -14 -20 -25 -9 -17 -7 -17 20 -7 17 6 30 16 30 22 0 5 4 4 9 -3 4 -7 38 -19 76 -27 56 -12 74 -21 104 -52 36 -37 46 -42 106 -47 17 -1 40 -7 51 -14 12 -6 24 -8 28 -5 3 3 6 1 6 -5 0 -7 3 -11 8 -11 21 4 43 -2 38 -10 -3 -4 6 -6 19 -3 20 3 25 0 25 -18 0 -18 4 -20 23 -15 29 9 27 9 67 2 19 -4 47 -9 63 -11 15 -3 42 -12 59 -20 33 -17 73 -12 62 6 -4 6 -2 8 3 5 6 -4 26 -9 44 -11 19 -3 67 -10 108 -16 53 -8 77 -7 86 0 8 6 24 12 37 14 13 1 29 6 36 10 8 4 10 2 6 -8 -9 -23 27 -25 71 -3 39 19 118 30 108 15 -2 -5 1 -8 7 -8 6 0 13 6 16 14 8 21 58 30 82 15 25 -15 78 3 66 23 -4 7 -3 8 4 4 7 -4 12 -3 12 2 0 16 78 45 124 46 24 1 42 -2 40 -6 -3 -5 11 -8 31 -8 27 0 34 3 28 13 -4 6 -8 17 -8 22 -1 14 30 46 46 49 8 1 19 5 26 9 6 4 14 3 18 -3 4 -6 11 -8 16 -4 5 3 8 2 7 -3 -2 -4 2 -10 7 -13 6 -3 11 7 13 23 2 15 12 32 23 38 11 5 16 15 13 21 -4 6 -3 8 3 5 6 -4 14 1 17 10 6 15 8 15 16 3 7 -11 10 -12 10 -2 0 7 4 11 9 8 5 -4 12 0 14 6 4 9 6 8 6 -3 1 -8 -17 -25 -38 -37 -41 -23 -45 -33 -57 -126 l-7 -60 -29 57 c-15 31 -30 57 -33 57 -2 0 -17 -8 -33 -17 l-28 -18 69 -127 69 -126 29 16 c16 10 29 20 29 24 0 4 -13 30 -30 58 -16 27 -27 50 -24 50 2 0 35 -15 72 -34 l67 -34 40 21 40 20 -40 18 c-22 10 -62 28 -88 39 -36 16 -47 25 -43 38 3 9 10 48 17 85 8 50 15 67 25 63 16 -6 29 10 14 19 -6 4 -4 15 6 31 14 20 14 27 3 42 -11 14 -11 15 1 5 21 -19 35 -16 19 4 -8 10 -9 14 -2 10 6 -4 29 2 49 14 27 15 47 19 68 14 17 -3 52 -9 79 -14 56 -9 80 -27 51 -37 -10 -4 -23 -14 -27 -21 -5 -8 -16 -11 -26 -8 -10 3 -24 -1 -30 -9 -10 -12 -7 -15 21 -14 18 1 48 -1 67 -4 27 -5 39 -1 62 22 16 15 26 29 23 32 -3 4 0 9 7 14 8 4 10 3 5 -4 -5 -8 0 -12 13 -12 11 0 24 -7 29 -15 6 -13 14 -14 34 -6 21 8 29 6 43 -9 24 -27 5 -60 -37 -60 -26 0 -29 -2 -18 -15 11 -13 10 -14 -4 -9 -9 4 -16 1 -16 -6 0 -7 -7 -10 -15 -6 -11 4 -21 -5 -32 -29 -17 -36 -33 -46 -33 -20 0 8 5 15 10 15 16 0 11 25 -9 47 -11 12 -17 24 -14 27 4 3 1 6 -5 6 -15 0 -15 -13 0 -28 7 -7 13 -33 13 -59 l1 -46 -53 -24 c-49 -23 -69 -43 -41 -43 6 0 8 -3 5 -6 -4 -4 -13 -1 -21 5 -8 7 -20 10 -25 6 -21 -12 -78 7 -91 30 -8 15 -18 21 -29 18 -11 -4 -10 -1 4 10 11 9 16 17 10 17 -5 0 -3 5 5 10 12 8 10 10 -9 10 -14 0 -33 7 -43 17 -17 15 -18 15 -18 -6 0 -12 -4 -30 -9 -40 -5 -9 -7 -22 -3 -27 7 -11 60 -29 75 -26 4 1 7 -2 7 -7 0 -5 20 -15 45 -22 25 -7 45 -16 45 -19 0 -9 -68 -40 -86 -40 -8 0 -17 -7 -20 -15 -4 -8 -14 -15 -24 -15 -10 0 -20 -4 -22 -8 -1 -4 -34 -25 -73 -46 -67 -37 -70 -37 -85 -19 -17 20 -46 30 -35 13 4 -6 -1 -20 -11 -31 -19 -21 -152 -89 -173 -89 -7 0 -10 -4 -7 -8 3 -5 -8 -6 -24 -4 -17 2 -28 7 -26 11 2 3 -6 11 -20 18 -21 10 -23 9 -21 -11 1 -13 -3 -20 -12 -18 -7 2 -31 -9 -52 -24 -31 -21 -45 -25 -73 -20 -27 5 -44 1 -73 -17 -68 -42 -70 -43 -55 -24 12 14 11 16 -7 14 -11 0 -17 -5 -15 -9 3 -4 0 -8 -5 -8 -6 0 -11 6 -11 14 0 23 -42 27 -65 6 -26 -24 -75 -43 -75 -29 0 5 -8 9 -17 7 -12 -2 -17 3 -15 13 4 24 -23 31 -41 11 -9 -9 -16 -21 -16 -27 -1 -5 -21 -10 -45 -10 -26 0 -42 4 -39 11 2 5 -6 19 -17 29 -20 18 -21 18 -36 -3 -8 -12 -23 -22 -32 -22 -15 0 -15 -2 -2 -10 25 -16 6 -11 -37 10 -22 10 -43 28 -46 40 -3 11 -1 18 4 14 5 -3 9 4 9 15 0 27 0 27 -72 -9 -73 -36 -147 -41 -192 -11 -17 11 -35 17 -40 14 -6 -4 -5 1 3 10 17 21 8 22 -13 2 -13 -14 -15 -13 -13 4 0 11 5 17 9 15 13 -9 9 10 -9 35 -9 14 -17 45 -17 72 -1 26 -5 51 -9 55 -7 7 -11 -9 -8 -36 2 -13 1 -13 -8 0 -7 10 -11 11 -11 3 0 -7 -9 -13 -20 -13 -13 0 -22 -9 -26 -25 -5 -20 -11 -23 -32 -19 -21 4 -29 0 -37 -18 -13 -29 -51 -31 -82 -4 -23 19 -31 60 -14 70 5 3 11 15 14 26 7 27 -15 26 -50 -4 -23 -20 -37 -23 -77 -20 -27 3 -53 7 -58 10 -5 3 -16 0 -24 -7 -12 -9 -17 -10 -27 0 -9 10 -8 11 4 6 10 -4 20 -2 24 4 3 6 -1 11 -9 11 -9 0 -16 4 -16 8 0 4 -15 23 -34 42 -27 28 -33 41 -29 65 3 23 0 33 -16 42 -17 11 -23 9 -41 -17 -24 -33 -41 -38 -60 -15 -7 9 -21 13 -31 10 -16 -5 -26 6 -16 18 1 2 -4 11 -10 19 -7 8 -10 18 -6 21 14 15 13 75 -1 80 -8 3 -17 -1 -20 -9 -3 -8 -1 -12 4 -9 5 3 7 -1 4 -9 -3 -8 -12 -12 -19 -10 -7 3 -16 1 -20 -5 -4 -8 -13 -6 -28 4 -24 17 -41 20 -32 5 3 -6 -1 -7 -10 -4 -14 6 -14 8 2 20 17 12 17 13 -3 10 -13 -3 -21 1 -21 9 0 8 3 12 6 10 4 -2 7 10 7 26 2 30 -10 39 -19 15 -3 -8 -1 -16 6 -19 6 -2 3 -6 -7 -10 -10 -4 -15 -3 -11 3 3 6 0 10 -7 10 -9 0 -9 3 2 10 12 8 9 10 -13 10 -19 0 -26 4 -21 12 4 6 3 8 -3 5 -6 -4 -16 0 -23 8 -7 8 -9 15 -5 15 4 0 2 6 -4 14 -9 10 -8 16 4 26 9 7 13 20 10 27 -3 9 0 13 7 11 13 -5 65 51 60 65 -1 5 2 6 7 3 5 -3 15 2 22 11 12 14 12 16 -2 11 -9 -4 -16 -1 -16 6 0 8 9 11 22 8 13 -2 26 2 30 9 6 9 2 11 -14 6 -18 -4 -20 -3 -11 8 24 29 -10 24 -44 -6 -20 -17 -36 -27 -36 -23 0 5 -7 -2 -16 -14 -8 -12 -21 -22 -27 -21 -25 3 -38 -1 -32 -11 4 -6 12 -7 18 -4 7 4 8 3 4 -2 -5 -5 -14 -9 -20 -10 -7 0 -20 -2 -30 -2 -12 -1 -15 -6 -11 -14 6 -10 5 -10 -8 -1 -8 7 -17 10 -20 7 -3 -3 -9 0 -14 7 -4 8 -3 10 4 5 7 -4 12 -4 12 -1 0 9 -27 35 -31 30 -3 -2 -12 9 -21 25 -16 28 -16 28 5 24 11 -2 23 -7 26 -12 38 -55 39 -56 60 -41 11 8 51 40 90 72 l70 59 25 -29 25 -28 20 20 20 20 -46 55 c-103 124 -89 113 -118 94 l-26 -17 26 -27 c14 -14 25 -29 25 -31 0 -12 -161 -140 -169 -134 -15 9 -5 40 12 37 8 -1 24 9 35 23 11 14 24 25 30 25 5 0 22 17 38 37 15 20 23 33 17 30 -6 -4 -13 2 -16 14 l-5 20 -39 -21 c-77 -42 -128 -78 -126 -88 1 -5 -7 -8 -18 -5 -13 4 -19 1 -17 -7 2 -7 -5 -14 -15 -15 -15 -3 -16 -1 -6 11 9 11 9 18 1 26 -7 7 -12 8 -12 3 -1 -6 -8 6 -16 25 -17 40 -10 115 9 103 7 -3 9 -2 4 2 -4 5 0 16 8 25 14 15 14 18 1 23 -8 3 -20 -2 -28 -11 -9 -11 -10 -14 0 -8 6 4 12 3 12 -2 0 -14 -26 -33 -33 -25 -4 3 -15 0 -24 -8 -16 -13 -17 -12 -4 4 12 16 12 18 -5 16 -8 -1 -54 54 -49 60 3 2 0 10 -7 18 -6 7 -8 16 -4 20 3 3 6 1 6 -6 0 -7 5 -9 10 -6 7 4 6 13 -1 27 -7 13 -7 18 -1 14 6 -3 13 -2 17 4 4 6 10 8 14 6 11 -7 101 41 93 49 -4 4 0 6 8 3 8 -2 19 -1 25 4 5 5 19 15 30 24 17 13 16 13 -12 -1 -18 -8 -39 -15 -48 -15 -8 0 -15 -4 -15 -10 0 -5 -9 -10 -20 -10 -11 0 -20 -5 -20 -11 0 -6 -7 -8 -16 -5 -10 4 -13 2 -8 -7 5 -9 4 -9 -7 1 -7 6 -20 12 -29 12 -12 0 -12 -2 -2 -9 11 -7 10 -9 -3 -14 -9 -4 -13 -3 -10 3 3 6 -1 10 -9 10 -8 0 -18 4 -21 10 -4 6 1 7 12 4 10 -3 -2 6 -27 21 -37 21 -45 31 -47 57 -1 17 -7 35 -14 38 -7 5 -8 18 -1 42 5 20 6 41 2 49 -11 17 -3 30 13 23 8 -3 25 6 40 20 14 13 43 30 64 36 63 20 59 29 -7 15 -68 -14 -81 -22 -60 -35 21 -13 3 -12 -22 1 -15 8 -23 8 -32 -1 -8 -8 -6 -9 9 -4 15 5 17 4 9 -5 -18 -19 -74 15 -81 50 -3 16 -9 26 -14 23 -5 -3 -9 -2 -9 1 0 10 23 30 48 44 12 7 20 16 17 21 -3 6 1 7 10 4 20 -8 44 12 40 34 -2 9 -4 21 -4 26 -1 6 -8 1 -17 -10 -8 -10 -12 -13 -8 -5 6 11 3 13 -12 7 -10 -4 -23 -8 -29 -9 -5 -1 -16 -8 -23 -14 -7 -7 -19 -13 -25 -13 -9 0 -9 2 0 8 10 6 7 18 -9 51 -18 36 -19 46 -8 66 7 14 16 22 21 20 4 -3 14 2 22 10 9 8 17 10 19 5 2 -7 13 -7 33 -1 45 15 157 39 182 40 12 1 25 -4 29 -10z m-632 -94 c-4 -8 -11 -12 -16 -9 -6 4 -5 10 3 15 19 12 19 11 13 -6z m4206 -87 c0 -5 9 -7 19 -3 11 3 38 -3 61 -14 22 -11 54 -23 70 -26 17 -4 32 -11 35 -16 4 -5 15 -9 26 -9 10 0 19 -4 19 -9 0 -5 11 -8 25 -8 35 0 39 -7 27 -40 -7 -22 -14 -27 -34 -25 -14 1 -31 -4 -38 -12 -10 -13 -7 -19 13 -38 23 -22 24 -25 10 -51 -9 -19 -20 -27 -30 -23 -18 7 -61 -25 -55 -42 2 -6 15 -12 28 -12 23 0 32 -19 17 -34 -5 -4 -8 -13 -8 -19 0 -7 -14 -12 -30 -12 -19 0 -29 -5 -27 -12 1 -7 -4 -13 -10 -13 -9 0 -8 -4 2 -10 22 -14 4 -12 -34 4 -30 13 -34 12 -32 -2 2 -9 8 -18 14 -20 7 -2 10 -8 6 -13 -3 -5 0 -9 5 -9 16 0 13 -62 -4 -104 -9 -20 -20 -34 -25 -31 -5 3 -7 -1 -4 -9 5 -12 -24 -37 -46 -41 -13 -2 -69 -42 -65 -46 2 -3 -23 -4 -56 -4 -54 1 -91 -13 -61 -23 7 -2 12 -11 12 -20 1 -13 6 -11 25 10 l24 28 11 -36 c13 -38 6 -104 -11 -104 -6 0 -8 -4 -4 -9 7 -12 -63 -70 -95 -78 -14 -3 -33 -13 -43 -21 -22 -19 -104 -17 -144 3 -14 8 -30 12 -35 9 -4 -3 -5 1 -2 9 5 14 -17 39 -32 36 -20 -3 -24 2 -15 20 8 14 7 22 -4 31 -16 13 -21 35 -6 26 4 -3 5 12 1 34 -4 22 -4 37 0 35 5 -3 11 2 14 11 4 9 2 13 -5 8 -8 -4 -7 0 0 15 7 11 18 21 25 21 7 0 21 9 31 20 17 18 17 20 2 14 -9 -3 -17 -10 -17 -15 0 -5 -6 -9 -12 -9 -21 1 32 40 53 40 10 0 19 5 19 11 0 5 5 7 10 4 6 -3 16 -3 22 1 18 11 48 12 48 2 0 -4 9 -8 20 -8 11 0 20 5 20 11 0 5 -5 7 -10 4 -6 -4 -9 -1 -8 7 2 7 -3 12 -9 10 -9 -1 -13 16 -13 60 1 54 5 69 30 102 49 64 109 94 155 76 15 -6 27 -6 30 1 4 5 3 9 -2 7 -4 -1 -27 4 -49 11 -41 13 -42 14 -38 55 4 56 7 67 12 61 3 -3 10 3 17 11 10 15 74 21 122 13 45 -8 45 3 -1 46 -27 25 -52 42 -57 39 -5 -3 -6 3 -2 12 4 11 2 15 -4 11 -17 -11 -9 56 11 85 14 22 25 27 52 26 19 -1 34 -5 34 -10z m-3813 -34 c-3 -3 -12 -4 -19 -1 -8 3 -5 6 6 6 11 1 17 -2 13 -5z m318 -214 c-3 -5 -12 -10 -18 -10 -7 0 -6 4 3 10 19 12 23 12 15 0z m289 -199 c3 -5 -1 -11 -9 -14 -9 -4 -12 -1 -8 9 6 16 10 17 17 5z m2849 -4 c3 -8 -1 -14 -8 -14 -7 0 -11 6 -8 14 3 7 6 13 8 13 2 0 5 -6 8 -13z m-3688 -6 c3 -5 2 -12 -3 -15 -5 -3 -9 1 -9 9 0 17 3 19 12 6z m4438 -116 c-7 -21 -12 -19 -10 4 0 11 5 18 9 15 4 -3 5 -11 1 -19z m-716 -7 c-3 -8 -6 -5 -6 6 -1 11 2 17 5 13 3 -3 4 -12 1 -19z m-157 -63 c-7 -9 -15 -13 -19 -10 -3 3 1 10 9 15 21 14 24 12 10 -5z m437 -87 c-3 -7 -5 -2 -5 12 0 14 2 19 5 13 2 -7 2 -19 0 -25z m361 -13 c-3 -3 -9 2 -12 12 -6 14 -5 15 5 6 7 -7 10 -15 7 -18z m-3688 -19 c0 -2 -8 -10 -17 -17 -16 -13 -17 -12 -4 4 13 16 21 21 21 13z m2620 -60 c0 -3 -4 -8 -10 -11 -5 -3 -10 -1 -10 4 0 6 5 11 10 11 6 0 10 -2 10 -4z m0 -42 c0 -2 -9 0 -20 6 -11 6 -20 13 -20 16 0 2 9 0 20 -6 11 -6 20 -13 20 -16z m707 4 c-3 -8 -6 -5 -6 6 -1 11 2 17 5 13 3 -3 4 -12 1 -19z m-425 -63 c2 2 5 -6 5 -18 2 -14 -1 -17 -6 -9 -4 6 -16 19 -27 28 -18 15 -18 15 2 5 12 -6 23 -8 26 -6z m-471 -18 c-10 -9 -11 -8 -5 6 3 10 9 15 12 12 3 -3 0 -11 -7 -18z m-2778 -24 c-4 -10 -9 -11 -19 -2 -18 15 -18 15 5 15 11 0 17 -5 14 -13z m3864 10 c-4 -3 -1 -13 6 -22 11 -14 10 -14 -5 -2 -16 12 -16 31 -1 31 4 0 3 -3 0 -7z m-2717 -23 c0 -5 -2 -10 -4 -10 -3 0 -8 5 -11 10 -3 6 -1 10 4 10 6 0 11 -4 11 -10z m1768 -15 c-3 -3 -9 2 -12 12 -6 14 -5 15 5 6 7 -7 10 -15 7 -18z m-1881 -57 c-3 -8 -6 -5 -6 6 -1 11 2 17 5 13 3 -3 4 -12 1 -19z m2756 -3 c-7 -21 -12 -19 -10 4 0 11 5 18 9 15 4 -3 5 -11 1 -19z m-3339 -34 c-2 -3 -12 3 -22 13 -16 17 -16 18 5 5 12 -7 20 -15 17 -18z m-294 -41 c0 -5 -2 -10 -4 -10 -3 0 -8 5 -11 10 -3 6 -1 10 4 10 6 0 11 -4 11 -10z m2325 -70 c-3 -5 -12 -10 -18 -10 -7 0 -6 4 3 10 19 12 23 12 15 0z m1155 6 c0 -2 -8 -10 -17 -17 -16 -13 -17 -12 -4 4 13 16 21 21 21 13z m-3400 -16 c0 -5 -2 -10 -4 -10 -3 0 -8 5 -11 10 -3 6 -1 10 4 10 6 0 11 -4 11 -10z m2205 0 c-3 -5 -12 -10 -18 -10 -7 0 -6 4 3 10 19 12 23 12 15 0z m-1958 -235 c0 -8 -4 -12 -9 -9 -4 3 -8 9 -8 15 0 5 4 9 8 9 5 0 9 -7 9 -15z m233 -159 c-10 -13 -40 -12 -40 1 0 3 7 3 15 0 8 -4 17 -2 20 3 4 6 9 10 12 10 3 0 0 -6 -7 -14z m1268 -57 c-3 -8 -7 -3 -11 10 -4 17 -3 21 5 13 5 -5 8 -16 6 -23z m-191 -265 c-3 -3 -12 -4 -19 -1 -8 3 -5 6 6 6 11 1 17 -2 13 -5z"/> <path d="M1020 2607 c-69 -17 -126 -32 -128 -33 -2 -1 0 -18 3 -37 l7 -35 46 14 c66 20 68 19 81 -30 15 -59 14 -66 -6 -66 -10 0 -35 -5 -56 -11 -36 -10 -38 -12 -31 -42 3 -18 7 -33 8 -34 4 -4 261 60 270 67 4 5 5 21 1 38 l-6 30 -52 -14 c-28 -7 -53 -12 -55 -10 -2 2 -9 26 -16 54 l-13 49 53 12 c54 13 59 18 48 59 -8 27 0 27 -154 -11z"/> <path d="M1205 2610 c-3 -5 1 -10 9 -10 9 0 16 5 16 10 0 6 -4 10 -9 10 -6 0 -13 -4 -16 -10z"/> <path d="M1255 2439 c-9 -14 -2 -20 14 -10 8 6 9 11 3 15 -6 3 -14 1 -17 -5z"/> <path d="M1131 2317 c-129 -57 -152 -95 -112 -184 20 -42 62 -73 100 -73 15 0 191 63 208 75 5 3 -21 65 -27 65 -3 0 -43 -16 -89 -35 -45 -19 -88 -35 -95 -35 -21 0 -48 37 -44 62 3 21 56 50 182 101 11 4 -12 68 -23 66 -3 0 -48 -19 -100 -42z"/> <path d="M1286 2325 c-3 -8 -1 -15 4 -15 13 0 22 18 11 24 -5 3 -11 -1 -15 -9z"/> <path d="M1110 2180 c0 -5 5 -10 10 -10 6 0 10 5 10 10 0 6 -4 10 -10 10 -5 0 -10 -4 -10 -10z"/> <path d="M1346 2182 c-3 -6 -1 -14 5 -17 15 -10 25 3 12 16 -7 7 -13 7 -17 1z"/> <path d="M1225 2029 c-60 -38 -114 -70 -119 -72 -7 -2 1 -20 30 -65 1 -2 36 19 78 47 42 27 76 48 76 46 0 -2 -21 -46 -46 -98 l-46 -94 19 -31 19 -30 122 75 122 75 -15 29 c-9 16 -19 29 -23 29 -4 0 -38 -20 -75 -45 -38 -25 -70 -45 -72 -45 -2 0 16 41 41 90 24 50 44 95 44 100 0 14 -31 60 -39 59 -3 -1 -55 -32 -116 -70z"/> <path d="M1409 2078 c0 -2 -2 -16 -4 -33 -4 -38 -9 -57 -19 -73 -4 -7 -6 -15 -3 -18 7 -8 58 106 52 117 -6 8 -24 13 -26 7z"/> <path d="M1501 1913 c-1 -17 16 -25 25 -12 4 7 3 9 -4 5 -5 -3 -13 0 -15 6 -4 9 -6 10 -6 1z"/> <path d="M1150 1876 c0 -2 7 -7 16 -10 8 -3 12 -2 9 4 -6 10 -25 14 -25 6z"/> <path d="M1608 1777 c12 -13 20 -27 17 -30 -3 -4 -2 -5 2 -2 3 3 12 0 20 -7 30 -25 23 3 -9 31 -39 36 -61 42 -30 8z"/> <path d="M1594 1597 c-38 -40 -82 -87 -97 -104 l-29 -31 21 -21 c12 -12 24 -21 27 -21 4 0 50 46 103 102 l97 101 -24 24 c-12 12 -24 23 -26 23 -1 0 -34 -33 -72 -73z"/> <path d="M1750 1641 c0 -7 -5 -9 -12 -5 -7 5 -8 3 -3 -5 5 -9 10 -10 18 -2 6 6 8 14 4 18 -4 3 -7 1 -7 -6z"/> <path d="M1666 1480 c-42 -56 -79 -107 -82 -115 -7 -16 45 -53 54 -39 21 30 95 124 98 124 2 0 2 -19 -1 -42 -17 -160 -16 -163 14 -186 l29 -21 87 114 87 115 -23 20 c-13 10 -27 19 -30 20 -3 0 -27 -29 -53 -66 -27 -36 -50 -63 -52 -61 -2 2 0 47 4 101 7 91 6 98 -13 116 -12 11 -26 20 -32 20 -5 0 -44 -45 -87 -100z m121 -195 c0 -8 -4 -12 -9 -9 -5 3 -6 10 -3 15 9 13 12 11 12 -6z"/> <path d="M1830 1516 c0 -58 11 -71 31 -35 8 16 8 20 0 14 -8 -5 -10 1 -5 19 4 17 1 31 -10 41 -15 15 -16 12 -16 -39z"/> <path d="M4010 1482 c-46 -44 -51 -75 -20 -115 29 -37 52 -41 115 -21 50 16 57 16 71 2 14 -14 14 -17 -2 -32 -10 -11 -25 -15 -38 -12 -14 3 -32 -3 -51 -18 l-29 -23 31 -16 c24 -13 38 -14 68 -6 96 27 128 141 51 178 -25 12 -36 11 -86 -4 -59 -18 -80 -15 -80 10 0 17 36 38 50 30 6 -4 24 4 41 16 30 21 31 23 13 36 -10 7 -35 13 -55 13 -31 0 -46 -8 -79 -38z"/> <path d="M4315 1450 c-20 -22 -17 -49 7 -64 24 -15 63 23 54 52 -9 28 -41 34 -61 12z"/> <path d="M1563 1435 c-10 -10 -9 -16 2 -25 12 -10 16 -9 21 5 9 22 -8 37 -23 20z"/> <path d="M1980 1450 c-7 -18 -5 -49 3 -41 5 5 7 17 4 27 -3 11 -6 17 -7 14z"/> <path d="M4410 1440 c0 -5 5 -10 10 -10 6 0 10 5 10 10 0 6 -4 10 -10 10 -5 0 -10 -4 -10 -10z"/> <path d="M1970 1348 c-48 -33 -72 -70 -77 -119 -6 -62 20 -108 77 -137 73 -38 151 -17 185 47 l15 30 -67 35 c-61 33 -67 34 -79 18 -19 -25 -18 -26 28 -48 42 -21 42 -21 19 -33 -46 -25 -111 17 -111 70 0 39 45 89 79 89 26 0 71 -31 71 -49 0 -5 15 -18 34 -29 41 -24 50 -13 35 40 -11 41 -41 72 -91 93 -51 21 -79 19 -118 -7z"/> <path d="M3952 1339 c-1 -16 -1 -29 2 -29 7 0 13 50 7 55 -4 2 -8 -10 -9 -26z"/> <path d="M4130 1330 c0 -5 5 -10 11 -10 5 0 7 5 4 10 -3 6 -8 10 -11 10 -2 0 -4 -4 -4 -10z"/> <path d="M2190 1327 c0 -11 29 -67 35 -67 9 0 -6 45 -20 59 -8 8 -15 12 -15 8z"/> <path d="M3945 1290 c-3 -5 -1 -10 4 -10 6 0 11 5 11 10 0 6 -2 10 -4 10 -3 0 -8 -4 -11 -10z"/> <path d="M2045 1260 c3 -5 16 -10 28 -10 18 0 19 2 7 10 -20 13 -43 13 -35 0z"/> <path d="M2250 1258 c-1 -7 -21 -67 -45 -133 -24 -66 -41 -123 -37 -127 4 -4 19 -9 33 -13 25 -6 28 -3 45 45 17 47 21 51 44 45 50 -12 62 -10 71 12 7 20 4 24 -31 34 -40 12 -49 29 -31 58 7 12 17 11 60 -5 29 -10 50 -23 47 -29 -7 -20 23 -12 46 12 19 20 19 23 4 23 -9 0 -15 -4 -12 -9 3 -5 -1 -12 -10 -15 -13 -5 -14 -1 -9 23 6 27 3 30 -42 47 -26 9 -63 23 -82 31 -42 16 -51 16 -51 1z"/> <path d="M3535 1236 c-79 -36 -107 -124 -66 -204 40 -79 147 -101 217 -43 26 21 54 73 54 100 0 19 -2 19 -39 4 -22 -8 -41 -24 -44 -34 -7 -25 -49 -43 -81 -35 -49 12 -72 94 -38 136 19 23 66 30 83 13 12 -12 80 8 81 23 1 18 -51 46 -93 50 -25 3 -57 -2 -74 -10z"/> <path d="M2200 1219 c0 -18 2 -19 15 -9 15 12 12 30 -6 30 -5 0 -9 -10 -9 -21z"/> <path d="M1705 1220 c3 -5 8 -10 11 -10 2 0 4 5 4 10 0 6 -5 10 -11 10 -5 0 -7 -4 -4 -10z"/> <path d="M3338 1178 c-16 -5 -28 -15 -28 -21 1 -7 13 -68 29 -137 l28 -125 34 3 c19 2 35 5 36 6 4 4 -61 286 -66 285 -3 0 -18 -5 -33 -11z"/> <path d="M2501 1163 c-50 -26 -74 -64 -78 -125 -5 -69 20 -112 84 -140 103 -46 205 23 205 138 0 104 -119 175 -211 127z m119 -73 c45 -45 9 -140 -53 -140 -67 0 -100 78 -56 134 26 33 79 36 109 6z"/> <path d="M2570 1066 c-7 -15 -9 -32 -5 -43 5 -10 9 -22 9 -27 1 -5 6 -11 13 -13 24 -8 38 46 21 83 -14 30 -21 30 -38 0z"/> <path d="M2535 1061 c5 -16 4 -21 -4 -17 -7 5 -8 1 -4 -10 5 -13 3 -15 -8 -9 -8 5 -5 -2 6 -14 11 -13 19 -25 18 -27 -2 -2 0 -4 5 -3 4 1 5 6 4 13 -2 6 -5 26 -7 44 -1 18 -6 36 -10 40 -4 4 -4 -4 0 -17z"/> <path d="M3701 1171 c-11 -7 -10 -10 4 -18 15 -9 15 -11 1 -16 -8 -3 -18 -2 -21 3 -3 5 -16 7 -30 4 -13 -2 -27 0 -30 6 -9 15 -25 12 -25 -6 0 -8 -4 -13 -10 -9 -5 3 -3 -7 5 -21 8 -15 12 -30 11 -33 -2 -3 2 -12 10 -18 8 -8 15 -9 19 -3 3 6 3 10 -1 10 -4 0 6 10 22 23 16 12 32 22 35 22 4 0 10 3 14 6 11 12 45 -3 45 -18 0 -12 3 -13 13 -4 8 6 18 7 23 3 5 -4 -1 5 -14 19 -12 14 -19 29 -15 34 5 4 -1 5 -11 1 -16 -5 -17 -4 -6 9 10 12 9 15 -6 15 -11 0 -25 -4 -33 -9z m-21 -37 c0 -8 -19 -13 -24 -6 -3 5 1 9 9 9 8 0 15 -2 15 -3z"/> <path d="M2698 1153 c6 -2 10 -8 7 -13 -3 -4 2 -10 10 -14 8 -3 15 -2 15 2 0 12 -23 32 -34 31 -6 0 -5 -3 2 -6z"/> <path d="M3188 1143 c-9 -10 -29 -42 -46 -72 l-31 -54 -7 61 -7 62 -33 0 c-40 0 -40 -4 -24 -135 5 -44 11 -97 12 -117 2 -37 3 -38 41 -38 l38 0 -6 48 c-4 26 -9 56 -12 67 -3 13 16 -1 52 -37 53 -54 60 -58 103 -58 l46 0 -69 70 -69 69 47 70 c26 39 47 73 47 76 0 13 -69 3 -82 -12z"/> <path d="M3556 1113 c2 -20 12 -46 23 -57 20 -19 20 -19 14 5 -3 13 -11 30 -17 38 -9 12 -8 13 3 7 8 -6 7 0 -4 18 -10 14 -19 26 -20 26 -2 0 -1 -17 1 -37z"/> <path d="M2767 1089 c-4 -30 -7 -96 -7 -146 l0 -93 35 0 35 0 0 55 c0 30 4 55 9 55 5 0 21 -24 34 -54 23 -49 28 -54 63 -58 22 -3 41 -4 43 -2 2 1 -10 27 -27 58 l-29 54 28 21 c35 26 45 62 30 99 -17 41 -48 55 -132 60 l-76 4 -6 -53z m143 -24 c6 -8 9 -23 5 -35 -5 -15 -15 -20 -44 -20 -37 0 -38 1 -37 35 1 32 3 35 32 35 17 0 37 -7 44 -15z"/> <path d="M3269 1115 c-1 -3 -2 -8 -3 -12 -1 -5 -5 -15 -10 -23 -7 -12 -6 -13 4 -3 13 12 23 43 14 43 -2 0 -5 -2 -5 -5z"/> <path d="M3920 1110 c0 -6 7 -10 15 -10 8 0 15 2 15 4 0 2 -7 6 -15 10 -8 3 -15 1 -15 -4z"/> <path d="M3288 1071 c-8 -12 -17 -19 -19 -16 -3 2 -6 -8 -7 -22 -1 -14 -6 -31 -11 -37 -11 -13 29 -64 46 -59 8 3 6 10 -5 22 -9 10 -20 16 -24 14 -10 -5 -10 11 -1 20 10 10 63 -44 56 -57 -4 -7 -2 -7 6 0 10 10 10 19 -2 45 -8 19 -15 49 -15 68 -1 42 -6 47 -24 22z"/> <path d="M3761 1049 c-9 -26 -9 -29 3 -20 16 14 28 51 16 51 -4 0 -13 -14 -19 -31z"/> <path d="M2280 1041 c0 -5 7 -12 16 -15 14 -5 15 -4 4 9 -14 17 -20 19 -20 6z"/> <path d="M3234 1043 c3 -6 -1 -16 -10 -21 -11 -6 -13 -11 -5 -16 24 -15 39 21 16 41 -4 4 -5 3 -1 -4z"/> <path d="M2988 969 c-14 -15 -15 -24 -7 -49 6 -16 15 -30 20 -30 11 0 12 24 2 34 -11 10 -12 36 -2 36 5 0 9 -4 9 -10 0 -5 5 -10 10 -10 14 0 12 26 -2 37 -9 7 -18 4 -30 -8z"/> <path d="M3458 977 c-6 -16 1 -37 13 -37 12 0 12 37 0 44 -5 3 -11 0 -13 -7z"/> <path d="M4678 2421 l-15 -38 78 -69 c43 -38 75 -70 71 -71 -4 -1 -52 -3 -106 -5 l-99 -4 -14 -38 c-7 -22 -12 -40 -11 -41 2 -1 62 -24 135 -52 l132 -51 12 35 c6 19 9 36 7 37 -1 2 -37 15 -78 29 l-75 25 92 1 c91 1 91 1 101 29 9 27 6 31 -47 75 -31 25 -65 53 -76 61 -30 23 -18 20 72 -18 l81 -35 11 32 c6 17 8 34 4 38 -7 5 -249 99 -258 99 -1 0 -9 -17 -17 -39z"/> <path d="M4995 2361 c-3 -5 -1 -12 5 -16 5 -3 10 1 10 9 0 18 -6 21 -15 7z"/> <path d="M4940 2245 c0 -9 5 -15 11 -13 6 2 11 8 11 13 0 5 -5 11 -11 13 -6 2 -11 -4 -11 -13z"/> <path d="M4560 2073 c-73 -27 -113 -140 -75 -213 34 -66 145 -96 203 -53 53 39 74 82 70 141 -5 56 -29 91 -80 118 -27 14 -89 18 -118 7z m106 -86 c46 -40 30 -114 -27 -132 -27 -9 -84 22 -98 51 -16 35 -14 47 10 78 27 34 77 35 115 3z"/> <path d="M4614 1975 c-4 -9 -3 -28 0 -43 4 -15 7 -32 8 -39 2 -20 41 2 45 26 3 22 -24 70 -40 71 -4 0 -10 -7 -13 -15z"/> <path d="M4580 1965 c-7 -23 -4 -51 5 -57 16 -12 28 -9 17 5 -5 6 -12 23 -15 37 -2 14 -6 21 -7 15z"/> <path d="M4740 2061 c0 -4 9 -16 20 -26 27 -24 43 -80 37 -124 l-6 -36 15 27 c21 39 5 102 -35 139 -17 15 -31 24 -31 20z"/> <path d="M4382 1813 c-36 -7 -89 -64 -101 -111 -10 -36 -9 -48 7 -86 49 -110 185 -125 256 -29 24 32 32 103 16 133 l-13 24 -23 -28 c-13 -15 -24 -40 -24 -55 0 -32 -33 -71 -60 -71 -61 0 -111 60 -90 110 11 27 54 55 70 45 4 -3 19 10 34 29 l25 34 -31 6 c-17 3 -33 5 -37 5 -3 -1 -16 -4 -29 -6z"/> <path d="M4524 1777 c-3 -9 -16 -17 -28 -17 -12 0 -33 -11 -48 -24 -14 -14 -28 -23 -31 -20 -2 3 -3 -8 -2 -25 4 -46 54 -86 60 -48 2 9 -2 17 -8 17 -7 0 -5 5 3 10 13 8 13 10 1 10 -11 0 -10 4 4 13 11 9 15 19 10 27 -5 8 -4 11 2 7 6 -4 23 4 39 18 22 19 26 27 17 36 -10 10 -14 9 -19 -4z"/> <path d="M4387 1703 c-10 -9 -9 -33 1 -33 4 0 8 9 8 20 0 23 0 22 -9 13z"/> <path d="M4614 1698 c-4 -7 -8 -21 -9 -32 -1 -12 -5 -32 -9 -46 -7 -22 -5 -21 11 5 10 17 20 42 21 58 2 29 -2 34 -14 15z"/> <path d="M4393 1643 c9 -9 20 -13 24 -9 4 4 1 11 -7 16 -25 16 -35 11 -17 -7z"/> <path d="M4373 2095 c0 -8 4 -12 9 -9 5 3 6 10 3 15 -9 13 -12 11 -12 -6z"/> <path d="M4650 4996 c0 -2 8 -10 18 -17 15 -13 16 -12 3 4 -13 16 -21 21 -21 13z"/> <path d="M4743 4915 c0 -8 4 -12 8 -9 4 2 9 -2 12 -8 2 -7 7 -10 11 -7 3 3 -2 13 -12 22 -15 14 -19 15 -19 2z"/> <path d="M4840 4820 c0 -5 5 -10 11 -10 5 0 7 5 4 10 -3 6 -8 10 -11 10 -2 0 -4 -4 -4 -10z"/> <path d="M5255 1739 c-4 -6 -5 -12 -2 -15 2 -3 7 2 10 11 7 17 1 20 -8 4z"/> <path d="M970 1252 c0 -5 7 -13 16 -16 10 -4 14 -1 12 6 -5 15 -28 23 -28 10z"/> <path d="M2888 373 c6 -2 18 -2 25 0 6 3 1 5 -13 5 -14 0 -19 -2 -12 -5z"/> <path d="M1365 5250 c-3 -5 -1 -10 4 -10 6 0 11 5 11 10 0 6 -2 10 -4 10 -3 0 -8 -4 -11 -10z"/> <path d="M1165 5089 c-11 -17 1 -21 15 -4 8 9 8 15 2 15 -6 0 -14 -5 -17 -11z"/> <path d="M4747 5069 c7 -7 15 -10 18 -7 3 3 -2 9 -12 12 -14 6 -15 5 -6 -5z"/> </g> </svg> 